#N canvas 261 40 1017 506 10;
#X obj 31 105 bignanosynthcontrol 0;
#N canvas 217 40 653 710 namechart 0;
#X obj 674 175 image megaman.gif 0;
#N canvas 157 151 533 535 list 0;
#X obj 101 101 scrolllist 90 86 86 {Helvetica\ 10\ bold} black green
red;
#X obj 86 54 list2symbol;
#X msg 109 78 add \$1;
#X msg 176 55 clear;
#X obj 86 3 inlet;
#X obj -37 431 outlet;
#X obj 145 22 route clear;
#X obj 125 226 list prepend python namerecog.py ";
#X obj 125 247 list append ";
#X obj 126 290 shell;
#X obj 124 391 s patchctl;
#X msg 125 268 \$1 \$2 \$3 \$4 \$5;
#X obj 182 296 r chansel;
#X obj 182 318 sel 0;
#X msg 125 367 \$2 \$1 0;
#X obj 125 334 pack f f;
#X connect 0 0 5 0;
#X connect 0 0 7 0;
#X connect 1 0 2 0;
#X connect 2 0 0 0;
#X connect 3 0 0 0;
#X connect 4 0 6 0;
#X connect 6 0 3 0;
#X connect 6 1 1 0;
#X connect 7 0 8 0;
#X connect 8 0 11 0;
#X connect 9 0 15 0;
#X connect 11 0 9 0;
#X connect 12 0 13 0;
#X connect 13 1 15 1;
#X connect 14 0 10 0;
#X connect 15 0 14 0;
#X coords 0 -1 1 1 88 88 2 100 100;
#X restore 101 101 pd list;
#X obj 286 53 route 0 1 2 3 4;
#X obj 187 27 countto 5;
#X obj 187 49 list append;
#X obj 185 6 bang;
#X msg 327 1 clear;
#N canvas 390 200 450 300 list 0;
#X obj 101 101 scrolllist 90 86 86 {Helvetica\ 10\ bold} black green
red;
#X obj 86 54 list2symbol;
#X msg 109 78 add \$1;
#X msg 176 55 clear;
#X obj 86 3 inlet;
#X obj 99 204 outlet;
#X obj 145 22 route clear;
#X obj 135 236 list prepend python namerecog.py ";
#X obj 135 257 list append ";
#X obj 136 300 shell;
#X obj 135 324 pack f f;
#X obj 134 371 s patchctl;
#X msg 135 346 \$2 \$1 1;
#X msg 135 278 \$1 \$2 \$3 \$4 \$5;
#X obj 215 301 r chansel;
#X obj 215 323 sel 0;
#X connect 0 0 5 0;
#X connect 0 0 7 0;
#X connect 1 0 2 0;
#X connect 2 0 0 0;
#X connect 3 0 0 0;
#X connect 4 0 6 0;
#X connect 6 0 3 0;
#X connect 6 1 1 0;
#X connect 7 0 8 0;
#X connect 8 0 13 0;
#X connect 9 0 10 0;
#X connect 10 0 12 0;
#X connect 12 0 11 0;
#X connect 13 0 9 0;
#X connect 14 0 15 0;
#X connect 15 1 10 1;
#X coords 0 -1 1 1 88 88 2 100 100;
#X restore 190 101 pd list;
#N canvas 390 200 450 300 list 0;
#X obj 101 101 scrolllist 90 86 86 {Helvetica\ 10\ bold} black green
red;
#X obj 86 54 list2symbol;
#X msg 109 78 add \$1;
#X msg 176 55 clear;
#X obj 86 3 inlet;
#X obj 99 204 outlet;
#X obj 145 22 route clear;
#X obj 145 246 list prepend python namerecog.py ";
#X obj 145 267 list append ";
#X obj 146 310 shell;
#X obj 145 334 pack f f;
#X obj 144 381 s patchctl;
#X msg 145 357 \$2 \$1 2;
#X msg 145 288 \$1 \$2 \$3 \$4 \$5;
#X obj 292 287 r chansel;
#X obj 292 309 sel 0;
#X connect 0 0 5 0;
#X connect 0 0 7 0;
#X connect 1 0 2 0;
#X connect 2 0 0 0;
#X connect 3 0 0 0;
#X connect 4 0 6 0;
#X connect 6 0 3 0;
#X connect 6 1 1 0;
#X connect 7 0 8 0;
#X connect 8 0 13 0;
#X connect 9 0 10 0;
#X connect 10 0 12 0;
#X connect 12 0 11 0;
#X connect 13 0 9 0;
#X connect 14 0 15 0;
#X connect 15 1 10 1;
#X coords 0 -1 1 1 88 88 2 100 100;
#X restore 279 101 pd list;
#N canvas 390 200 450 300 list 0;
#X obj 101 101 scrolllist 90 86 86 {Helvetica\ 10\ bold} black green
red;
#X obj 86 54 list2symbol;
#X msg 109 78 add \$1;
#X msg 176 55 clear;
#X obj 86 3 inlet;
#X obj 99 204 outlet;
#X obj 145 22 route clear;
#X obj 155 256 list prepend python namerecog.py ";
#X obj 155 277 list append ";
#X obj 156 320 shell;
#X obj 155 344 pack f f;
#X obj 154 391 s patchctl;
#X msg 155 367 \$2 \$1 3;
#X msg 155 298 \$1 \$2 \$3 \$4 \$5;
#X obj 306 299 r chansel;
#X obj 306 321 sel 0;
#X connect 0 0 5 0;
#X connect 0 0 7 0;
#X connect 1 0 2 0;
#X connect 2 0 0 0;
#X connect 3 0 0 0;
#X connect 4 0 6 0;
#X connect 6 0 3 0;
#X connect 6 1 1 0;
#X connect 7 0 8 0;
#X connect 8 0 13 0;
#X connect 9 0 10 0;
#X connect 10 0 12 0;
#X connect 12 0 11 0;
#X connect 13 0 9 0;
#X connect 14 0 15 0;
#X connect 15 1 10 1;
#X coords 0 -1 1 1 88 88 2 100 100;
#X restore 368 101 pd list;
#N canvas 390 200 450 300 list 0;
#X obj 101 101 scrolllist 90 86 86 {Helvetica\ 10\ bold} black green
red;
#X obj 86 54 list2symbol;
#X msg 109 78 add \$1;
#X msg 176 55 clear;
#X obj 86 3 inlet;
#X obj 99 204 outlet;
#X obj 145 22 route clear;
#X obj 165 236 list prepend python namerecog.py ";
#X obj 165 257 list append ";
#X obj 166 300 shell;
#X obj 165 324 pack f f;
#X obj 164 371 s patchctl;
#X msg 165 347 \$2 \$1 4;
#X msg 165 278 \$1 \$2 \$3 \$4 \$5;
#X obj 325 291 r chansel;
#X obj 325 313 sel 0;
#X connect 0 0 5 0;
#X connect 0 0 7 0;
#X connect 1 0 2 0;
#X connect 2 0 0 0;
#X connect 3 0 0 0;
#X connect 4 0 6 0;
#X connect 6 0 3 0;
#X connect 6 1 1 0;
#X connect 7 0 8 0;
#X connect 8 0 13 0;
#X connect 9 0 10 0;
#X connect 10 0 12 0;
#X connect 12 0 11 0;
#X connect 13 0 9 0;
#X connect 14 0 15 0;
#X connect 15 1 10 1;
#X coords 0 -1 1 1 88 88 2 100 100;
#X restore 457 101 pd list;
#X obj 356 -41 bang;
#X msg 275 -16 stop;
#X obj 298 -68 bng 15 250 50 0 empty empty empty 17 7 0 10 -262144
-1 -1;
#X obj 321 -64 countto 6;
#X obj 277 -38 sel 5;
#X obj 197 -36 t b a;
#N canvas 0 80 1067 599 5bankread 0;
#X obj 220 -201 textfile;
#X msg 349 -300 rewind;
#X obj 485 -349 loadbang;
#X msg 252 -225 read bank.a.txt;
#X obj 400 -201 textfile;
#X msg 432 -225 read bank.b.txt;
#X obj 570 -201 textfile;
#X obj 710 -201 textfile;
#X obj 859 -200 textfile;
#X msg 892 -225 read bank.e.txt;
#X msg 742 -225 read bank.d.txt;
#X msg 602 -225 read bank.c.txt;
#X obj 485 -326 t b b;
#N canvas 342 489 383 279 throwaway 0;
#X obj 157 -4 inlet;
#X obj 134 215 outlet;
#X obj 43 32 r namebank;
#X obj 48 102 unpack;
#X obj 197 156 * 8;
#X obj 196 179 until;
#X obj 193 217 outlet;
#X obj 248 234 outlet;
#X obj 76 217 outlet;
#X obj 25 218 outlet;
#X obj 161 56 s clearscreen;
#X obj 170 130 t b b f b;
#X obj 111 106 t f b;
#X obj 173 106 pipe 120;
#N canvas 0 0 450 300 init_ignore 0;
#X obj 134 92 sel 0;
#X obj 130 72 route 15;
#X obj 135 114 countto 2;
#X obj 156 140 sel 1;
#X msg 160 162 1;
#X obj 93 159 spigot 0;
#X obj 120 19 inlet;
#X obj 128 227 outlet;
#X obj 233 -2 loadbang;
#X obj 235 28 del 3000;
#X connect 0 0 2 0;
#X connect 1 0 0 0;
#X connect 2 0 3 0;
#X connect 3 0 4 0;
#X connect 4 0 5 1;
#X connect 5 0 7 0;
#X connect 6 0 5 0;
#X connect 6 0 1 0;
#X connect 8 0 9 0;
#X connect 9 0 4 0;
#X restore 42 71 pd init_ignore;
#X connect 2 0 14 0;
#X connect 3 0 9 0;
#X connect 3 1 12 0;
#X connect 4 0 5 0;
#X connect 5 0 6 0;
#X connect 11 0 8 0;
#X connect 11 1 1 0;
#X connect 11 2 4 0;
#X connect 11 3 7 0;
#X connect 12 0 13 0;
#X connect 12 1 10 0;
#X connect 13 0 11 0;
#X connect 14 0 3 0;
#X restore 623 -457 pd throwaway;
#X obj 720 -128 spigot;
#X msg 749 -149 1;
#X msg 775 -149 0;
#N canvas 0 0 450 300 distribute_bangs_across_banks 0;
#X obj 25 245 outlet;
#X obj 95 245 outlet;
#X obj 155 245 outlet;
#X obj 215 245 outlet;
#X obj 285 245 outlet;
#X obj 78 16 inlet;
#X obj 143 155 sel 0 1 2 3 4;
#X obj 147 130 % 5;
#X obj 105 97 sel 40;
#X obj 111 70 countto 41;
#X obj 209 70 bang;
#X obj 83 41 bang;
#X obj 198 96 del 20;
#X connect 5 0 11 0;
#X connect 6 0 0 0;
#X connect 6 1 1 0;
#X connect 6 2 2 0;
#X connect 6 3 3 0;
#X connect 6 4 4 0;
#X connect 7 0 6 0;
#X connect 8 1 7 0;
#X connect 8 1 10 0;
#X connect 9 0 8 0;
#X connect 10 0 12 0;
#X connect 11 0 9 0;
#X connect 12 0 9 0;
#X restore 422 -272 pd distribute_bangs_across_banks;
#X obj 699 -54 outlet;
#X obj 451 -410 s channelchoice;
#X obj 793 -392 loadbang;
#X obj 794 -364 del 3000;
#X connect 0 0 14 0;
#X connect 1 0 0 0;
#X connect 1 0 4 0;
#X connect 1 0 6 0;
#X connect 1 0 7 0;
#X connect 1 0 8 0;
#X connect 2 0 12 0;
#X connect 3 0 0 0;
#X connect 4 0 14 0;
#X connect 5 0 4 0;
#X connect 6 0 14 0;
#X connect 7 0 14 0;
#X connect 8 0 14 0;
#X connect 9 0 8 0;
#X connect 10 0 7 0;
#X connect 11 0 6 0;
#X connect 12 0 1 0;
#X connect 12 1 9 0;
#X connect 12 1 10 0;
#X connect 12 1 11 0;
#X connect 12 1 5 0;
#X connect 12 1 3 0;
#X connect 13 0 19 0;
#X connect 13 1 17 0;
#X connect 13 2 15 0;
#X connect 13 3 0 0;
#X connect 13 3 4 0;
#X connect 13 3 6 0;
#X connect 13 3 7 0;
#X connect 13 3 8 0;
#X connect 13 4 1 0;
#X connect 13 4 16 0;
#X connect 14 0 18 0;
#X connect 15 0 14 1;
#X connect 16 0 14 1;
#X connect 17 0 0 0;
#X connect 17 1 4 0;
#X connect 17 2 6 0;
#X connect 17 3 7 0;
#X connect 17 4 8 0;
#X connect 20 0 21 0;
#X connect 21 0 15 0;
#X restore 165 -79 pd 5bankread;
#X obj 108 52 s namebank;
#X msg 95 -2 0 3;
#X obj 104 -201 pack;
#X floatatom 89 -225 5 0 0 0 - - -, f 5;
#X floatatom 129 -228 5 0 0 0 - - -, f 5;
#X obj 315 -116 r clearscreen;
#X obj 321 -88 bang;
#X obj 353 -23 delay 20;
#X msg 105 -177 \$1 \$2;
#X obj 100 441 ctlout;
#X obj 153 438 pgmout;
#X floatatom 105 380 5 0 0 0 - - -, f 5;
#X obj 88 307 hradio 15 1 0 5 empty empty empty 0 -8 0 10 -262144 -1
-1 0;
#X obj 115 405 + 1;
#X obj 139 210 r patchctl;
#X obj 149 281 unpack f f f;
#X msg 168 251 \$3 \$2 \$1;
#X obj 185 314 % 128;
#X obj 303 537 outlet;
#X floatatom 214 463 5 0 0 0 - - -, f 5;
#X obj 188 398 sel 0;
#X obj 235 334 r chansel;
#X obj 128 493 pack f f f;
#X obj 130 521 print;
#X obj 90 339 pipe 10;
#X connect 1 0 36 0;
#X connect 2 0 1 0;
#X connect 2 1 7 0;
#X connect 2 2 8 0;
#X connect 2 3 9 0;
#X connect 2 4 10 0;
#X connect 3 0 4 0;
#X connect 4 0 2 0;
#X connect 5 0 3 0;
#X connect 6 0 4 1;
#X connect 6 0 5 0;
#X connect 7 0 36 0;
#X connect 8 0 36 0;
#X connect 9 0 36 0;
#X connect 10 0 36 0;
#X connect 11 0 25 0;
#X connect 12 0 25 0;
#X connect 13 0 14 0;
#X connect 14 0 11 0;
#X connect 14 0 15 0;
#X connect 15 0 12 0;
#X connect 16 0 5 0;
#X connect 16 1 4 1;
#X connect 17 0 16 0;
#X connect 19 0 18 0;
#X connect 20 0 26 0;
#X connect 21 0 20 0;
#X connect 22 0 20 1;
#X connect 23 0 24 0;
#X connect 24 0 14 0;
#X connect 25 0 6 0;
#X connect 25 0 14 0;
#X connect 26 0 0 0;
#X connect 29 0 31 0;
#X connect 30 0 42 0;
#X connect 31 0 28 0;
#X connect 31 0 40 1;
#X connect 32 0 34 0;
#X connect 33 0 30 0;
#X connect 33 0 27 0;
#X connect 33 1 35 0;
#X connect 34 0 33 0;
#X connect 35 0 29 0;
#X connect 38 1 28 1;
#X connect 38 1 27 2;
#X connect 38 1 37 0;
#X connect 38 1 40 2;
#X connect 39 0 38 0;
#X connect 40 0 41 0;
#X connect 42 0 27 0;
#X coords 0 -1 1 1 446 90 2 100 100;
#X restore 167 183 pd namechart;
#X obj 194 280 r chansel;
#X obj 193 306 sel 0;
#X obj 181 349 send;
#X obj 203 328 makefilename \$0-2progname%d;
#X obj 170 101 cnv 15 443 80 empty empty empty 20 12 0 14 -1 -66577
0;
#X obj 280 122 cnv 15 110 18 empty \$0-selecshun empty 20 12 0 14 -4034
-66577 0;
#X obj 173 102 tgl 15 0 chansel tog1 1 6 6 0 10 -1 -4034 -4034 0 1
;
#X obj 173 123 tgl 15 0 chansel tog2 2 6 7 0 10 -1 -4034 -4034 0 2
;
#X obj 173 145 tgl 15 0 chansel tog3 3 6 7 0 10 -1 -4034 -4034 0 3
;
#X obj 173 167 tgl 15 0 chansel tog4 4 6 7 0 10 -1 -4034 -4034 0 4
;
#X obj 283 102 tgl 15 0 chansel tog5 5 6 7 0 10 -1 -4034 -4034 0 5
;
#X obj 283 123 tgl 15 0 chansel tog6 6 6 7 0 10 -1 -4034 -4034 6 6
;
#X obj 283 145 tgl 15 0 chansel tog7 7 6 7 0 10 -1 -4034 -4034 0 7
;
#X obj 283 167 tgl 15 0 chansel tog8 8 6 7 0 10 -1 -4034 -4034 0 8
;
#X obj 392 102 tgl 15 0 chansel tog9 9 6 7 0 10 -1 -4034 -4034 0 9
;
#X obj 392 123 tgl 15 0 chansel tog10 10 4 7 0 10 -1 -4034 -4034 0
10;
#X obj 392 145 tgl 15 0 chansel tog11 11 4 7 0 10 -1 -4034 -4034 0
11;
#X obj 392 167 tgl 15 0 chansel tog12 12 4 7 0 10 -1 -4034 -4034 0
12;
#X obj 502 102 tgl 15 0 chansel tog13 13 4 7 0 10 -1 -4034 -4034 0
13;
#X obj 502 123 tgl 15 0 chansel tog14 14 4 7 0 10 -1 -4034 -4034 0
14;
#X obj 502 145 tgl 15 0 chansel tog15 15 4 7 0 10 -1 -4034 -4034 0
15;
#X obj 502 167 tgl 15 0 chansel tog16 16 4 7 0 10 -1 -4034 -4034 0
16;
#X symbolatom 190 102 14 0 0 0 - #0-2progname1 #0-progname1, f 14
;
#X symbolatom 190 123 14 0 0 0 - #0-2progname2 #0-progname2, f 14
;
#X symbolatom 190 144 14 0 0 0 - #0-2progname3 #0-progname3, f 14
;
#X symbolatom 190 165 14 0 0 0 - #0-2progname4 #0-progname4, f 14
;
#X symbolatom 300 102 14 0 0 0 - #0-2progname5 #0-progname5, f 14
;
#X symbolatom 300 123 14 0 0 0 - #0-2progname6 #0-progname6, f 14
;
#X symbolatom 300 144 14 0 0 0 - #0-2progname7 #0-progname7, f 14
;
#X symbolatom 300 165 14 0 0 0 - #0-2progname8 #0-progname8, f 14
;
#X symbolatom 409 102 14 0 0 0 - #0-2progname9 #0-progname9, f 14
;
#X symbolatom 409 123 14 0 0 0 - #0-2progname10 #0-progname10, f 14
;
#X symbolatom 409 144 14 0 0 0 - #0-2progname11 #0-progname11, f 14
;
#X symbolatom 409 165 14 0 0 0 - #0-2progname12 #0-progname12, f 14
;
#X symbolatom 519 102 14 0 0 0 - #0-2progname13 #0-progname13, f 14
;
#X symbolatom 519 123 14 0 0 0 - #0-2progname14 #0-progname14, f 14
;
#X symbolatom 519 144 14 0 0 0 - #0-2progname15 #0-progname15, f 14
;
#X symbolatom 519 165 14 0 0 0 - #0-2progname16 #0-progname16, f 14
;
#X obj 814 321 s \$0-selecshun;
#X msg 795 298 pos \$1 \$2;
#X floatatom 789 244 5 0 0 0 - - -, f 5;
#X floatatom 834 245 5 0 0 0 - - -, f 5;
#X obj 789 276 pack f f;
#X obj 759 261 bang;
#X obj 780 110 r chansel;
#X obj 860 171 % 4;
#X obj 765 173 * 0.25;
#X obj 748 195 int;
#X obj 804 131 sel 0;
#X obj 807 151 - 1;
#X obj 755 215 expr $f1*110+ 170;
#X obj 808 190 expr $f1*21+101;
#X obj 84 296 r patchctl;
#X obj 63 367 print patchctl;
#X msg 828 527 add \$1;
#X obj 871 481 textfile;
#X msg 894 403 read nanobank.txt;
#X msg 876 423 rewind;
#X obj 829 504 list2symbol;
#N canvas 0 0 450 300 bangtildun 0;
#X obj 112 52 inlet;
#X obj 261 24 inlet;
#X obj 86 254 outlet;
#X obj 251 249 outlet;
#X msg 204 86 stop;
#X obj 227 177 int 0;
#X obj 268 178 + 1;
#X obj 251 211 int;
#X obj 193 179 bang;
#X msg 252 149 0;
#X obj 37 131 delay 5;
#X obj 228 60 bang;
#X obj 134 128 delay 50;
#X obj 84 228 spigot;
#X msg 148 192 0;
#X obj 84 176 t b b;
#X msg 112 200 1;
#X connect 0 0 12 0;
#X connect 0 0 15 0;
#X connect 1 0 11 0;
#X connect 4 0 8 0;
#X connect 4 0 9 0;
#X connect 4 0 10 0;
#X connect 4 0 12 0;
#X connect 4 0 14 0;
#X connect 5 0 6 0;
#X connect 6 0 5 1;
#X connect 6 0 7 1;
#X connect 7 0 3 0;
#X connect 8 0 7 0;
#X connect 9 0 5 1;
#X connect 10 0 12 0;
#X connect 11 0 4 0;
#X connect 12 0 5 0;
#X connect 12 0 10 0;
#X connect 12 0 15 0;
#X connect 13 0 2 0;
#X connect 14 0 13 1;
#X connect 15 0 13 0;
#X connect 15 1 16 0;
#X connect 16 0 13 1;
#X restore 865 437 pd bangtildun;
#X obj 1016 403 bng 43 250 50 0 empty empty empty 17 7 0 10 -262144
-1 -1;
#X obj 941 468 tof/pmenu 1 1 black green red;
#X obj 844 376 t b b b b;
#X obj 844 350 loadbang;
#X obj 923 334 r chansel;
#X obj 922 360 sel 0;
#X obj 937 493 t b f;
#X obj 941 539 pack;
#X obj 941 566 s namebank;
#X msg 927 518 0;
#X obj 1011 260 send;
#X obj 943 212 makefilename \$0-2progname%d;
#X obj 968 186 t b f;
#X obj 992 161 + 1;
#X obj 1053 120 sel 16;
#X obj 1080 145 bang;
#X obj 923 123 loadbang;
#X obj 992 116 int 0;
#X obj 991 139 % 16;
#X obj 1038 158 bng 15 250 50 0 empty empty empty 17 7 0 10 -262144
-1 -1;
#X obj 1005 187 print;
#X msg 1038 235 symbol off;
#N canvas 336 389 882 257 savestates 0;
#X obj 524 148 preset_hub %hidden% %node% 2 7 0 %node% 2 8 0 %node%
2 9 0 %node% 2 10 0 %node% 2 11 0 %node% 2 12 0 %node% 2 13 0 %node%
2 14 0 %node% 2 15 0 %node% 2 16 0 %node% 2 17 0 %node% 2 18 0 %node%
2 19 0 %node% 2 20 0 %node% 2 21 0 %node% 2 22 0 %node% 2 23 3 %node%
2 23 4 %node% 2 29 4 %node% 2 30 4 %node% 2 31 4 %node% 2 32 4 %node%
2 33 4 %node% 2 34 4 %node% 2 35 4 %node% 2 36 4 %node% 2 37 4 %node%
2 29 3 %node% 2 30 3 %node% 2 31 3 %node% 2 32 3 %node% 2 33 3 %node%
2 34 3 %node% 2 35 3 %node% 2 36 3 %node% 2 37 3 %node% 2 38 3 %node%
2 38 4 %node% 2 39 3 %node% 2 39 4 %node% 2 40 3 %node% 2 40 4 %node%
2 41 3 %node% 2 41 4 %node% 2 42 3 %node% 2 42 4 %node% 2 43 3 %node%
2 43 4;
#X msg 561 101 store \$1;
#X msg 478 103 recall \$1;
#X obj 470 27 hradio 15 1 0 4 empty empty empty 0 -8 0 10 -262144 -1
-1 0;
#X obj 556 75 hradio 15 1 0 4 empty empty empty 0 -8 0 10 -262144 -1
-1 0;
#X obj 470 48 t b f;
#X obj 453 72 s \$0-recallbang;
#N canvas 256 354 166 137 name 0;
#X obj 12 22 preset_node;
#X symbolatom 48 78 10 0 0 0 - - -, f 10;
#X obj 53 42 r \$0-2progname1;
#X obj 15 102 symbol;
#X obj 15 123 s \$0-2progname1;
#X obj 19 67 bng 15 250 50 0 empty \$0-recallbang empty 17 7 0 10 -262144
-1 -1;
#X connect 0 0 1 0;
#X connect 1 0 3 1;
#X connect 2 0 1 0;
#X connect 3 0 4 0;
#X connect 5 0 3 0;
#X restore 12 9 pd name memory;
#N canvas 256 354 166 137 name 0;
#X obj 12 22 preset_node;
#X symbolatom 48 78 10 0 0 0 - - -, f 10;
#X obj 15 102 symbol;
#X obj 19 67 bng 15 250 50 0 empty \$0-recallbang empty 17 7 0 10 -262144
-1 -1;
#X obj 53 42 r \$0-2progname2;
#X obj 15 123 s \$0-2progname2;
#X connect 0 0 1 0;
#X connect 1 0 2 1;
#X connect 2 0 5 0;
#X connect 3 0 2 0;
#X connect 4 0 1 0;
#X restore 12 29 pd name memory;
#N canvas 256 354 166 137 name 0;
#X obj 12 22 preset_node;
#X symbolatom 48 78 10 0 0 0 - - -, f 10;
#X obj 15 102 symbol;
#X obj 19 67 bng 15 250 50 0 empty \$0-recallbang empty 17 7 0 10 -262144
-1 -1;
#X obj 53 42 r \$0-2progname3;
#X obj 15 123 s \$0-2progname3;
#X connect 0 0 1 0;
#X connect 1 0 2 1;
#X connect 2 0 5 0;
#X connect 3 0 2 0;
#X connect 4 0 1 0;
#X restore 12 49 pd name memory;
#N canvas 256 354 166 137 name 0;
#X obj 12 22 preset_node;
#X symbolatom 48 78 10 0 0 0 - - -, f 10;
#X obj 15 102 symbol;
#X obj 19 67 bng 15 250 50 0 empty \$0-recallbang empty 17 7 0 10 -262144
-1 -1;
#X obj 53 42 r \$0-2progname4;
#X obj 15 123 s \$0-2progname4;
#X connect 0 0 1 0;
#X connect 1 0 2 1;
#X connect 2 0 5 0;
#X connect 3 0 2 0;
#X connect 4 0 1 0;
#X restore 12 69 pd name memory;
#N canvas 256 354 166 137 name 0;
#X obj 12 22 preset_node;
#X symbolatom 48 78 10 0 0 0 - - -, f 10;
#X obj 15 102 symbol;
#X obj 19 67 bng 15 250 50 0 empty \$0-recallbang empty 17 7 0 10 -262144
-1 -1;
#X obj 53 42 r \$0-2progname5;
#X obj 15 123 s \$0-2progname5;
#X connect 0 0 1 0;
#X connect 1 0 2 1;
#X connect 2 0 5 0;
#X connect 3 0 2 0;
#X connect 4 0 1 0;
#X restore 112 9 pd name memory;
#N canvas 256 354 166 137 name 0;
#X obj 12 22 preset_node;
#X symbolatom 48 78 10 0 0 0 - - -, f 10;
#X obj 15 102 symbol;
#X obj 19 67 bng 15 250 50 0 empty \$0-recallbang empty 17 7 0 10 -262144
-1 -1;
#X obj 53 42 r \$0-2progname6;
#X obj 15 123 s \$0-2progname6;
#X connect 0 0 1 0;
#X connect 1 0 2 1;
#X connect 2 0 5 0;
#X connect 3 0 2 0;
#X connect 4 0 1 0;
#X restore 112 29 pd name memory;
#N canvas 256 354 166 137 name 0;
#X obj 12 22 preset_node;
#X symbolatom 48 78 10 0 0 0 - - -, f 10;
#X obj 15 102 symbol;
#X obj 19 67 bng 15 250 50 0 empty \$0-recallbang empty 17 7 0 10 -262144
-1 -1;
#X obj 53 42 r \$0-2progname7;
#X obj 15 123 s \$0-2progname7;
#X connect 0 0 1 0;
#X connect 1 0 2 1;
#X connect 2 0 5 0;
#X connect 3 0 2 0;
#X connect 4 0 1 0;
#X restore 112 49 pd name memory;
#N canvas 256 354 166 137 name 0;
#X obj 12 22 preset_node;
#X symbolatom 48 78 10 0 0 0 - - -, f 10;
#X obj 15 102 symbol;
#X obj 19 67 bng 15 250 50 0 empty \$0-recallbang empty 17 7 0 10 -262144
-1 -1;
#X obj 53 42 r \$0-2progname8;
#X obj 15 123 s \$0-2progname8;
#X connect 0 0 1 0;
#X connect 1 0 2 1;
#X connect 2 0 5 0;
#X connect 3 0 2 0;
#X connect 4 0 1 0;
#X restore 112 69 pd name memory;
#N canvas 256 354 166 137 name 0;
#X obj 12 22 preset_node;
#X symbolatom 48 78 10 0 0 0 - - -, f 10;
#X obj 15 102 symbol;
#X obj 19 67 bng 15 250 50 0 empty \$0-recallbang empty 17 7 0 10 -262144
-1 -1;
#X obj 53 42 r \$0-2progname9;
#X obj 15 123 s \$0-2progname9;
#X connect 0 0 1 0;
#X connect 1 0 2 1;
#X connect 2 0 5 0;
#X connect 3 0 2 0;
#X connect 4 0 1 0;
#X restore 212 9 pd name memory;
#N canvas 256 354 166 137 name 0;
#X obj 12 22 preset_node;
#X symbolatom 48 78 10 0 0 0 - - -, f 10;
#X obj 15 102 symbol;
#X obj 19 67 bng 15 250 50 0 empty \$0-recallbang empty 17 7 0 10 -262144
-1 -1;
#X obj 53 42 r \$0-2progname10;
#X obj 15 123 s \$0-2progname10;
#X connect 0 0 1 0;
#X connect 1 0 2 1;
#X connect 2 0 5 0;
#X connect 3 0 2 0;
#X connect 4 0 1 0;
#X restore 212 29 pd name memory;
#N canvas 256 354 166 137 name 0;
#X obj 12 22 preset_node;
#X symbolatom 48 78 10 0 0 0 - - -, f 10;
#X obj 15 102 symbol;
#X obj 19 67 bng 15 250 50 0 empty \$0-recallbang empty 17 7 0 10 -262144
-1 -1;
#X obj 53 42 r \$0-2progname11;
#X obj 15 123 s \$0-2progname11;
#X connect 0 0 1 0;
#X connect 1 0 2 1;
#X connect 2 0 5 0;
#X connect 3 0 2 0;
#X connect 4 0 1 0;
#X restore 212 49 pd name memory;
#N canvas 256 354 166 137 name 0;
#X obj 12 22 preset_node;
#X symbolatom 48 78 10 0 0 0 - - -, f 10;
#X obj 15 102 symbol;
#X obj 19 67 bng 15 250 50 0 empty \$0-recallbang empty 17 7 0 10 -262144
-1 -1;
#X obj 53 42 r \$0-2progname12;
#X obj 15 123 s \$0-2progname12;
#X connect 0 0 1 0;
#X connect 1 0 2 1;
#X connect 2 0 5 0;
#X connect 3 0 2 0;
#X connect 4 0 1 0;
#X restore 212 69 pd name memory;
#N canvas 256 354 166 137 name 0;
#X obj 12 22 preset_node;
#X symbolatom 48 78 10 0 0 0 - - -, f 10;
#X obj 15 102 symbol;
#X obj 19 67 bng 15 250 50 0 empty \$0-recallbang empty 17 7 0 10 -262144
-1 -1;
#X obj 53 42 r \$0-2progname13;
#X obj 15 123 s \$0-2progname13;
#X connect 0 0 1 0;
#X connect 1 0 2 1;
#X connect 2 0 5 0;
#X connect 3 0 2 0;
#X connect 4 0 1 0;
#X restore 312 9 pd name memory;
#N canvas 256 354 166 137 name 0;
#X obj 12 22 preset_node;
#X symbolatom 48 78 10 0 0 0 - - -, f 10;
#X obj 15 102 symbol;
#X obj 19 67 bng 15 250 50 0 empty \$0-recallbang empty 17 7 0 10 -262144
-1 -1;
#X obj 53 42 r \$0-2progname14;
#X obj 15 123 s \$0-2progname14;
#X connect 0 0 1 0;
#X connect 1 0 2 1;
#X connect 2 0 5 0;
#X connect 3 0 2 0;
#X connect 4 0 1 0;
#X restore 312 29 pd name memory;
#N canvas 256 354 166 137 name 0;
#X obj 12 22 preset_node;
#X symbolatom 48 78 10 0 0 0 - - -, f 10;
#X obj 15 102 symbol;
#X obj 19 67 bng 15 250 50 0 empty \$0-recallbang empty 17 7 0 10 -262144
-1 -1;
#X obj 53 42 r \$0-2progname15;
#X obj 15 123 s \$0-2progname15;
#X connect 0 0 1 0;
#X connect 1 0 2 1;
#X connect 2 0 5 0;
#X connect 3 0 2 0;
#X connect 4 0 1 0;
#X restore 312 49 pd name memory;
#N canvas 256 354 166 137 name 0;
#X obj 12 22 preset_node;
#X symbolatom 48 78 10 0 0 0 - - -, f 10;
#X obj 15 102 symbol;
#X obj 19 67 bng 15 250 50 0 empty \$0-recallbang empty 17 7 0 10 -262144
-1 -1;
#X obj 53 42 r \$0-2progname16;
#X obj 15 123 s \$0-2progname16;
#X connect 0 0 1 0;
#X connect 1 0 2 1;
#X connect 2 0 5 0;
#X connect 3 0 2 0;
#X connect 4 0 1 0;
#X restore 312 69 pd name memory;
#N canvas 216 354 392 370 ctlandpgm 0;
#X obj 129 28 r patchctl;
#X floatatom 168 160 5 0 0 0 - - -, f 5;
#X floatatom 203 159 5 0 0 0 - - -, f 5;
#X obj 190 132 preset_node;
#X obj 92 115 preset_node;
#X obj 134 194 int;
#X obj 166 192 int;
#X obj 44 83 bng 15 250 50 0 empty \$0-recallbang empty 17 7 0 10 -262144
-1 -1;
#X obj 56 150 t b b;
#X obj 148 337 s patchctl;
#X floatatom 168 160 5 0 0 0 - - -, f 5;
#X floatatom 203 159 5 0 0 0 - - -, f 5;
#X obj 134 194 int;
#X obj 166 192 int;
#X obj 168 96 unpack f f;
#X obj 150 239 pack f f f;
#X obj 199 212 \$1, f 2;
#X obj 200 188 loadbang;
#X obj 148 60 route 0;
#X obj 215 28 \$1, f 2;
#X obj 216 4 loadbang;
#X obj 37 113 del;
#X msg 148 274 \$3 \$1 \$2;
#X obj 234 240 s chansel;
#X obj 69 81 * 10;
#X connect 0 0 18 0;
#X connect 1 0 5 1;
#X connect 2 0 6 1;
#X connect 3 0 2 0;
#X connect 4 0 1 0;
#X connect 5 0 15 0;
#X connect 6 0 15 1;
#X connect 7 0 21 0;
#X connect 8 0 5 0;
#X connect 8 1 6 0;
#X connect 10 0 12 1;
#X connect 11 0 13 1;
#X connect 14 0 1 0;
#X connect 14 1 2 0;
#X connect 15 0 22 0;
#X connect 16 0 15 2;
#X connect 16 0 23 0;
#X connect 17 0 16 0;
#X connect 18 0 14 0;
#X connect 19 0 18 1;
#X connect 19 0 24 0;
#X connect 20 0 19 0;
#X connect 21 0 8 0;
#X connect 22 0 9 0;
#X connect 24 0 21 1;
#X restore 16 103 pd ctlandpgm 1;
#X msg 641 100 write \$1;
#X msg 709 100 read \$1;
#X obj 710 76 openpanel;
#X obj 642 77 savepanel;
#X obj 713 9 bng 15 250 50 0 empty empty empty 17 7 0 10 -262144 -1
-1;
#N canvas 216 354 392 370 ctlandpgm 0;
#X obj 129 28 r patchctl;
#X floatatom 168 160 5 0 0 0 - - -, f 5;
#X floatatom 203 159 5 0 0 0 - - -, f 5;
#X obj 190 132 preset_node;
#X obj 92 115 preset_node;
#X obj 134 194 int;
#X obj 166 192 int;
#X obj 44 83 bng 15 250 50 0 empty \$0-recallbang empty 17 7 0 10 -262144
-1 -1;
#X obj 56 150 t b b;
#X obj 148 337 s patchctl;
#X floatatom 168 160 5 0 0 0 - - -, f 5;
#X floatatom 203 159 5 0 0 0 - - -, f 5;
#X obj 134 194 int;
#X obj 166 192 int;
#X obj 168 96 unpack f f;
#X obj 150 239 pack f f f;
#X obj 199 212 \$1, f 2;
#X obj 200 188 loadbang;
#X obj 148 60 route 0;
#X obj 215 28 \$1, f 2;
#X obj 216 4 loadbang;
#X obj 37 113 del;
#X msg 148 274 \$3 \$1 \$2;
#X obj 234 240 s chansel;
#X obj 69 81 * 10;
#X connect 0 0 18 0;
#X connect 1 0 5 1;
#X connect 2 0 6 1;
#X connect 3 0 2 0;
#X connect 4 0 1 0;
#X connect 5 0 15 0;
#X connect 6 0 15 1;
#X connect 7 0 21 0;
#X connect 8 0 5 0;
#X connect 8 1 6 0;
#X connect 10 0 12 1;
#X connect 11 0 13 1;
#X connect 14 0 1 0;
#X connect 14 1 2 0;
#X connect 15 0 22 0;
#X connect 16 0 15 2;
#X connect 16 0 23 0;
#X connect 17 0 16 0;
#X connect 18 0 14 0;
#X connect 19 0 18 1;
#X connect 19 0 24 0;
#X connect 20 0 19 0;
#X connect 21 0 8 0;
#X connect 22 0 9 0;
#X connect 24 0 21 1;
#X restore 16 123 pd ctlandpgm 2;
#N canvas 216 354 392 370 ctlandpgm 0;
#X obj 129 28 r patchctl;
#X floatatom 168 160 5 0 0 0 - - -, f 5;
#X floatatom 203 159 5 0 0 0 - - -, f 5;
#X obj 190 132 preset_node;
#X obj 92 115 preset_node;
#X obj 134 194 int;
#X obj 166 192 int;
#X obj 44 83 bng 15 250 50 0 empty \$0-recallbang empty 17 7 0 10 -262144
-1 -1;
#X obj 56 150 t b b;
#X obj 148 337 s patchctl;
#X floatatom 168 160 5 0 0 0 - - -, f 5;
#X floatatom 203 159 5 0 0 0 - - -, f 5;
#X obj 134 194 int;
#X obj 166 192 int;
#X obj 168 96 unpack f f;
#X obj 150 239 pack f f f;
#X obj 199 212 \$1, f 2;
#X obj 200 188 loadbang;
#X obj 148 60 route 0;
#X obj 215 28 \$1, f 2;
#X obj 216 4 loadbang;
#X obj 37 113 del;
#X msg 148 274 \$3 \$1 \$2;
#X obj 234 240 s chansel;
#X obj 69 81 * 10;
#X connect 0 0 18 0;
#X connect 1 0 5 1;
#X connect 2 0 6 1;
#X connect 3 0 2 0;
#X connect 4 0 1 0;
#X connect 5 0 15 0;
#X connect 6 0 15 1;
#X connect 7 0 21 0;
#X connect 8 0 5 0;
#X connect 8 1 6 0;
#X connect 10 0 12 1;
#X connect 11 0 13 1;
#X connect 14 0 1 0;
#X connect 14 1 2 0;
#X connect 15 0 22 0;
#X connect 16 0 15 2;
#X connect 16 0 23 0;
#X connect 17 0 16 0;
#X connect 18 0 14 0;
#X connect 19 0 18 1;
#X connect 19 0 24 0;
#X connect 20 0 19 0;
#X connect 21 0 8 0;
#X connect 22 0 9 0;
#X connect 24 0 21 1;
#X restore 16 143 pd ctlandpgm 3;
#N canvas 216 354 392 370 ctlandpgm 0;
#X obj 129 28 r patchctl;
#X floatatom 168 160 5 0 0 0 - - -, f 5;
#X floatatom 203 159 5 0 0 0 - - -, f 5;
#X obj 190 132 preset_node;
#X obj 92 115 preset_node;
#X obj 134 194 int;
#X obj 166 192 int;
#X obj 44 83 bng 15 250 50 0 empty \$0-recallbang empty 17 7 0 10 -262144
-1 -1;
#X obj 56 150 t b b;
#X obj 148 337 s patchctl;
#X floatatom 168 160 5 0 0 0 - - -, f 5;
#X floatatom 203 159 5 0 0 0 - - -, f 5;
#X obj 134 194 int;
#X obj 166 192 int;
#X obj 168 96 unpack f f;
#X obj 150 239 pack f f f;
#X obj 199 212 \$1, f 2;
#X obj 200 188 loadbang;
#X obj 148 60 route 0;
#X obj 215 28 \$1, f 2;
#X obj 216 4 loadbang;
#X obj 37 113 del;
#X msg 148 274 \$3 \$1 \$2;
#X obj 234 240 s chansel;
#X obj 69 81 * 10;
#X connect 0 0 18 0;
#X connect 1 0 5 1;
#X connect 2 0 6 1;
#X connect 3 0 2 0;
#X connect 4 0 1 0;
#X connect 5 0 15 0;
#X connect 6 0 15 1;
#X connect 7 0 21 0;
#X connect 8 0 5 0;
#X connect 8 1 6 0;
#X connect 10 0 12 1;
#X connect 11 0 13 1;
#X connect 14 0 1 0;
#X connect 14 1 2 0;
#X connect 15 0 22 0;
#X connect 16 0 15 2;
#X connect 16 0 23 0;
#X connect 17 0 16 0;
#X connect 18 0 14 0;
#X connect 19 0 18 1;
#X connect 19 0 24 0;
#X connect 20 0 19 0;
#X connect 21 0 8 0;
#X connect 22 0 9 0;
#X connect 24 0 21 1;
#X restore 16 163 pd ctlandpgm 4;
#N canvas 216 354 392 370 ctlandpgm 0;
#X obj 129 28 r patchctl;
#X floatatom 168 160 5 0 0 0 - - -, f 5;
#X floatatom 203 159 5 0 0 0 - - -, f 5;
#X obj 190 132 preset_node;
#X obj 92 115 preset_node;
#X obj 134 194 int;
#X obj 166 192 int;
#X obj 44 83 bng 15 250 50 0 empty \$0-recallbang empty 17 7 0 10 -262144
-1 -1;
#X obj 56 150 t b b;
#X obj 148 337 s patchctl;
#X floatatom 168 160 5 0 0 0 - - -, f 5;
#X floatatom 203 159 5 0 0 0 - - -, f 5;
#X obj 134 194 int;
#X obj 166 192 int;
#X obj 168 96 unpack f f;
#X obj 150 239 pack f f f;
#X obj 199 212 \$1, f 2;
#X obj 200 188 loadbang;
#X obj 148 60 route 0;
#X obj 215 28 \$1, f 2;
#X obj 216 4 loadbang;
#X obj 37 113 del;
#X msg 148 274 \$3 \$1 \$2;
#X obj 234 240 s chansel;
#X obj 69 81 * 10;
#X connect 0 0 18 0;
#X connect 1 0 5 1;
#X connect 2 0 6 1;
#X connect 3 0 2 0;
#X connect 4 0 1 0;
#X connect 5 0 15 0;
#X connect 6 0 15 1;
#X connect 7 0 21 0;
#X connect 8 0 5 0;
#X connect 8 1 6 0;
#X connect 10 0 12 1;
#X connect 11 0 13 1;
#X connect 14 0 1 0;
#X connect 14 1 2 0;
#X connect 15 0 22 0;
#X connect 16 0 15 2;
#X connect 16 0 23 0;
#X connect 17 0 16 0;
#X connect 18 0 14 0;
#X connect 19 0 18 1;
#X connect 19 0 24 0;
#X connect 20 0 19 0;
#X connect 21 0 8 0;
#X connect 22 0 9 0;
#X connect 24 0 21 1;
#X restore 116 103 pd ctlandpgm 5;
#N canvas 216 354 392 370 ctlandpgm 0;
#X obj 129 28 r patchctl;
#X floatatom 168 160 5 0 0 0 - - -, f 5;
#X floatatom 203 159 5 0 0 0 - - -, f 5;
#X obj 190 132 preset_node;
#X obj 92 115 preset_node;
#X obj 134 194 int;
#X obj 166 192 int;
#X obj 44 83 bng 15 250 50 0 empty \$0-recallbang empty 17 7 0 10 -262144
-1 -1;
#X obj 56 150 t b b;
#X obj 148 337 s patchctl;
#X floatatom 168 160 5 0 0 0 - - -, f 5;
#X floatatom 203 159 5 0 0 0 - - -, f 5;
#X obj 134 194 int;
#X obj 166 192 int;
#X obj 168 96 unpack f f;
#X obj 150 239 pack f f f;
#X obj 199 212 \$1, f 2;
#X obj 200 188 loadbang;
#X obj 148 60 route 0;
#X obj 215 28 \$1, f 2;
#X obj 216 4 loadbang;
#X obj 37 113 del;
#X msg 148 274 \$3 \$1 \$2;
#X obj 234 240 s chansel;
#X obj 69 81 * 10;
#X connect 0 0 18 0;
#X connect 1 0 5 1;
#X connect 2 0 6 1;
#X connect 3 0 2 0;
#X connect 4 0 1 0;
#X connect 5 0 15 0;
#X connect 6 0 15 1;
#X connect 7 0 21 0;
#X connect 8 0 5 0;
#X connect 8 1 6 0;
#X connect 10 0 12 1;
#X connect 11 0 13 1;
#X connect 14 0 1 0;
#X connect 14 1 2 0;
#X connect 15 0 22 0;
#X connect 16 0 15 2;
#X connect 16 0 23 0;
#X connect 17 0 16 0;
#X connect 18 0 14 0;
#X connect 19 0 18 1;
#X connect 19 0 24 0;
#X connect 20 0 19 0;
#X connect 21 0 8 0;
#X connect 22 0 9 0;
#X connect 24 0 21 1;
#X restore 116 123 pd ctlandpgm 6;
#N canvas 216 354 392 370 ctlandpgm 0;
#X obj 129 28 r patchctl;
#X floatatom 168 160 5 0 0 0 - - -, f 5;
#X floatatom 203 159 5 0 0 0 - - -, f 5;
#X obj 190 132 preset_node;
#X obj 92 115 preset_node;
#X obj 134 194 int;
#X obj 166 192 int;
#X obj 44 83 bng 15 250 50 0 empty \$0-recallbang empty 17 7 0 10 -262144
-1 -1;
#X obj 56 150 t b b;
#X obj 148 337 s patchctl;
#X floatatom 168 160 5 0 0 0 - - -, f 5;
#X floatatom 203 159 5 0 0 0 - - -, f 5;
#X obj 134 194 int;
#X obj 166 192 int;
#X obj 168 96 unpack f f;
#X obj 150 239 pack f f f;
#X obj 199 212 \$1, f 2;
#X obj 200 188 loadbang;
#X obj 148 60 route 0;
#X obj 215 28 \$1, f 2;
#X obj 216 4 loadbang;
#X obj 37 113 del;
#X msg 148 274 \$3 \$1 \$2;
#X obj 234 240 s chansel;
#X obj 69 81 * 10;
#X connect 0 0 18 0;
#X connect 1 0 5 1;
#X connect 2 0 6 1;
#X connect 3 0 2 0;
#X connect 4 0 1 0;
#X connect 5 0 15 0;
#X connect 6 0 15 1;
#X connect 7 0 21 0;
#X connect 8 0 5 0;
#X connect 8 1 6 0;
#X connect 10 0 12 1;
#X connect 11 0 13 1;
#X connect 14 0 1 0;
#X connect 14 1 2 0;
#X connect 15 0 22 0;
#X connect 16 0 15 2;
#X connect 16 0 23 0;
#X connect 17 0 16 0;
#X connect 18 0 14 0;
#X connect 19 0 18 1;
#X connect 19 0 24 0;
#X connect 20 0 19 0;
#X connect 21 0 8 0;
#X connect 22 0 9 0;
#X connect 24 0 21 1;
#X restore 116 143 pd ctlandpgm 7;
#N canvas 216 354 392 370 ctlandpgm 0;
#X obj 129 28 r patchctl;
#X floatatom 168 160 5 0 0 0 - - -, f 5;
#X floatatom 203 159 5 0 0 0 - - -, f 5;
#X obj 190 132 preset_node;
#X obj 92 115 preset_node;
#X obj 134 194 int;
#X obj 166 192 int;
#X obj 44 83 bng 15 250 50 0 empty \$0-recallbang empty 17 7 0 10 -262144
-1 -1;
#X obj 56 150 t b b;
#X obj 148 337 s patchctl;
#X floatatom 168 160 5 0 0 0 - - -, f 5;
#X floatatom 203 159 5 0 0 0 - - -, f 5;
#X obj 134 194 int;
#X obj 166 192 int;
#X obj 168 96 unpack f f;
#X obj 150 239 pack f f f;
#X obj 199 212 \$1, f 2;
#X obj 200 188 loadbang;
#X obj 148 60 route 0;
#X obj 215 28 \$1, f 2;
#X obj 216 4 loadbang;
#X obj 37 113 del;
#X msg 148 274 \$3 \$1 \$2;
#X obj 234 240 s chansel;
#X obj 69 81 * 10;
#X connect 0 0 18 0;
#X connect 1 0 5 1;
#X connect 2 0 6 1;
#X connect 3 0 2 0;
#X connect 4 0 1 0;
#X connect 5 0 15 0;
#X connect 6 0 15 1;
#X connect 7 0 21 0;
#X connect 8 0 5 0;
#X connect 8 1 6 0;
#X connect 10 0 12 1;
#X connect 11 0 13 1;
#X connect 14 0 1 0;
#X connect 14 1 2 0;
#X connect 15 0 22 0;
#X connect 16 0 15 2;
#X connect 16 0 23 0;
#X connect 17 0 16 0;
#X connect 18 0 14 0;
#X connect 19 0 18 1;
#X connect 19 0 24 0;
#X connect 20 0 19 0;
#X connect 21 0 8 0;
#X connect 22 0 9 0;
#X connect 24 0 21 1;
#X restore 116 163 pd ctlandpgm 8;
#N canvas 216 354 392 370 ctlandpgm 0;
#X obj 129 28 r patchctl;
#X floatatom 168 160 5 0 0 0 - - -, f 5;
#X floatatom 203 159 5 0 0 0 - - -, f 5;
#X obj 190 132 preset_node;
#X obj 92 115 preset_node;
#X obj 134 194 int;
#X obj 166 192 int;
#X obj 44 83 bng 15 250 50 0 empty \$0-recallbang empty 17 7 0 10 -262144
-1 -1;
#X obj 56 150 t b b;
#X obj 148 337 s patchctl;
#X floatatom 168 160 5 0 0 0 - - -, f 5;
#X floatatom 203 159 5 0 0 0 - - -, f 5;
#X obj 134 194 int;
#X obj 166 192 int;
#X obj 168 96 unpack f f;
#X obj 150 239 pack f f f;
#X obj 199 212 \$1, f 2;
#X obj 200 188 loadbang;
#X obj 148 60 route 0;
#X obj 215 28 \$1, f 2;
#X obj 216 4 loadbang;
#X obj 37 113 del;
#X msg 148 274 \$3 \$1 \$2;
#X obj 234 240 s chansel;
#X obj 69 81 * 10;
#X connect 0 0 18 0;
#X connect 1 0 5 1;
#X connect 2 0 6 1;
#X connect 3 0 2 0;
#X connect 4 0 1 0;
#X connect 5 0 15 0;
#X connect 6 0 15 1;
#X connect 7 0 21 0;
#X connect 8 0 5 0;
#X connect 8 1 6 0;
#X connect 10 0 12 1;
#X connect 11 0 13 1;
#X connect 14 0 1 0;
#X connect 14 1 2 0;
#X connect 15 0 22 0;
#X connect 16 0 15 2;
#X connect 16 0 23 0;
#X connect 17 0 16 0;
#X connect 18 0 14 0;
#X connect 19 0 18 1;
#X connect 19 0 24 0;
#X connect 20 0 19 0;
#X connect 21 0 8 0;
#X connect 22 0 9 0;
#X connect 24 0 21 1;
#X restore 216 103 pd ctlandpgm 9;
#N canvas 216 354 392 370 ctlandpgm 0;
#X obj 129 28 r patchctl;
#X floatatom 168 160 5 0 0 0 - - -, f 5;
#X floatatom 203 159 5 0 0 0 - - -, f 5;
#X obj 190 132 preset_node;
#X obj 92 115 preset_node;
#X obj 134 194 int;
#X obj 166 192 int;
#X obj 44 83 bng 15 250 50 0 empty \$0-recallbang empty 17 7 0 10 -262144
-1 -1;
#X obj 56 150 t b b;
#X obj 148 337 s patchctl;
#X floatatom 168 160 5 0 0 0 - - -, f 5;
#X floatatom 203 159 5 0 0 0 - - -, f 5;
#X obj 134 194 int;
#X obj 166 192 int;
#X obj 168 96 unpack f f;
#X obj 150 239 pack f f f;
#X obj 199 212 \$1, f 2;
#X obj 200 188 loadbang;
#X obj 148 60 route 0;
#X obj 215 28 \$1, f 2;
#X obj 216 4 loadbang;
#X obj 37 113 del;
#X msg 148 274 \$3 \$1 \$2;
#X obj 234 240 s chansel;
#X obj 69 81 * 10;
#X connect 0 0 18 0;
#X connect 1 0 5 1;
#X connect 2 0 6 1;
#X connect 3 0 2 0;
#X connect 4 0 1 0;
#X connect 5 0 15 0;
#X connect 6 0 15 1;
#X connect 7 0 21 0;
#X connect 8 0 5 0;
#X connect 8 1 6 0;
#X connect 10 0 12 1;
#X connect 11 0 13 1;
#X connect 14 0 1 0;
#X connect 14 1 2 0;
#X connect 15 0 22 0;
#X connect 16 0 15 2;
#X connect 16 0 23 0;
#X connect 17 0 16 0;
#X connect 18 0 14 0;
#X connect 19 0 18 1;
#X connect 19 0 24 0;
#X connect 20 0 19 0;
#X connect 21 0 8 0;
#X connect 22 0 9 0;
#X connect 24 0 21 1;
#X restore 216 123 pd ctlandpgm 10;
#N canvas 216 354 392 370 ctlandpgm 0;
#X obj 129 28 r patchctl;
#X floatatom 168 160 5 0 0 0 - - -, f 5;
#X floatatom 203 159 5 0 0 0 - - -, f 5;
#X obj 190 132 preset_node;
#X obj 92 115 preset_node;
#X obj 134 194 int;
#X obj 166 192 int;
#X obj 44 83 bng 15 250 50 0 empty \$0-recallbang empty 17 7 0 10 -262144
-1 -1;
#X obj 56 150 t b b;
#X obj 148 337 s patchctl;
#X floatatom 168 160 5 0 0 0 - - -, f 5;
#X floatatom 203 159 5 0 0 0 - - -, f 5;
#X obj 134 194 int;
#X obj 166 192 int;
#X obj 168 96 unpack f f;
#X obj 150 239 pack f f f;
#X obj 199 212 \$1, f 2;
#X obj 200 188 loadbang;
#X obj 148 60 route 0;
#X obj 215 28 \$1, f 2;
#X obj 216 4 loadbang;
#X obj 37 113 del;
#X msg 148 274 \$3 \$1 \$2;
#X obj 234 240 s chansel;
#X obj 69 81 * 10;
#X connect 0 0 18 0;
#X connect 1 0 5 1;
#X connect 2 0 6 1;
#X connect 3 0 2 0;
#X connect 4 0 1 0;
#X connect 5 0 15 0;
#X connect 6 0 15 1;
#X connect 7 0 21 0;
#X connect 8 0 5 0;
#X connect 8 1 6 0;
#X connect 10 0 12 1;
#X connect 11 0 13 1;
#X connect 14 0 1 0;
#X connect 14 1 2 0;
#X connect 15 0 22 0;
#X connect 16 0 15 2;
#X connect 16 0 23 0;
#X connect 17 0 16 0;
#X connect 18 0 14 0;
#X connect 19 0 18 1;
#X connect 19 0 24 0;
#X connect 20 0 19 0;
#X connect 21 0 8 0;
#X connect 22 0 9 0;
#X connect 24 0 21 1;
#X restore 216 143 pd ctlandpgm 11;
#N canvas 216 354 392 370 ctlandpgm 0;
#X obj 129 28 r patchctl;
#X floatatom 168 160 5 0 0 0 - - -, f 5;
#X floatatom 203 159 5 0 0 0 - - -, f 5;
#X obj 190 132 preset_node;
#X obj 92 115 preset_node;
#X obj 134 194 int;
#X obj 166 192 int;
#X obj 44 83 bng 15 250 50 0 empty \$0-recallbang empty 17 7 0 10 -262144
-1 -1;
#X obj 56 150 t b b;
#X obj 148 337 s patchctl;
#X floatatom 168 160 5 0 0 0 - - -, f 5;
#X floatatom 203 159 5 0 0 0 - - -, f 5;
#X obj 134 194 int;
#X obj 166 192 int;
#X obj 168 96 unpack f f;
#X obj 150 239 pack f f f;
#X obj 199 212 \$1, f 2;
#X obj 200 188 loadbang;
#X obj 148 60 route 0;
#X obj 215 28 \$1, f 2;
#X obj 216 4 loadbang;
#X obj 37 113 del;
#X msg 148 274 \$3 \$1 \$2;
#X obj 234 240 s chansel;
#X obj 69 81 * 10;
#X connect 0 0 18 0;
#X connect 1 0 5 1;
#X connect 2 0 6 1;
#X connect 3 0 2 0;
#X connect 4 0 1 0;
#X connect 5 0 15 0;
#X connect 6 0 15 1;
#X connect 7 0 21 0;
#X connect 8 0 5 0;
#X connect 8 1 6 0;
#X connect 10 0 12 1;
#X connect 11 0 13 1;
#X connect 14 0 1 0;
#X connect 14 1 2 0;
#X connect 15 0 22 0;
#X connect 16 0 15 2;
#X connect 16 0 23 0;
#X connect 17 0 16 0;
#X connect 18 0 14 0;
#X connect 19 0 18 1;
#X connect 19 0 24 0;
#X connect 20 0 19 0;
#X connect 21 0 8 0;
#X connect 22 0 9 0;
#X connect 24 0 21 1;
#X restore 216 163 pd ctlandpgm 12;
#N canvas 216 354 392 370 ctlandpgm 0;
#X obj 129 28 r patchctl;
#X floatatom 168 160 5 0 0 0 - - -, f 5;
#X floatatom 203 159 5 0 0 0 - - -, f 5;
#X obj 190 132 preset_node;
#X obj 92 115 preset_node;
#X obj 134 194 int;
#X obj 166 192 int;
#X obj 44 83 bng 15 250 50 0 empty \$0-recallbang empty 17 7 0 10 -262144
-1 -1;
#X obj 56 150 t b b;
#X obj 148 337 s patchctl;
#X floatatom 168 160 5 0 0 0 - - -, f 5;
#X floatatom 203 159 5 0 0 0 - - -, f 5;
#X obj 134 194 int;
#X obj 166 192 int;
#X obj 168 96 unpack f f;
#X obj 150 239 pack f f f;
#X obj 199 212 \$1, f 2;
#X obj 200 188 loadbang;
#X obj 148 60 route 0;
#X obj 215 28 \$1, f 2;
#X obj 216 4 loadbang;
#X obj 37 113 del;
#X msg 148 274 \$3 \$1 \$2;
#X obj 234 240 s chansel;
#X obj 69 81 * 10;
#X connect 0 0 18 0;
#X connect 1 0 5 1;
#X connect 2 0 6 1;
#X connect 3 0 2 0;
#X connect 4 0 1 0;
#X connect 5 0 15 0;
#X connect 6 0 15 1;
#X connect 7 0 21 0;
#X connect 8 0 5 0;
#X connect 8 1 6 0;
#X connect 10 0 12 1;
#X connect 11 0 13 1;
#X connect 14 0 1 0;
#X connect 14 1 2 0;
#X connect 15 0 22 0;
#X connect 16 0 15 2;
#X connect 16 0 23 0;
#X connect 17 0 16 0;
#X connect 18 0 14 0;
#X connect 19 0 18 1;
#X connect 19 0 24 0;
#X connect 20 0 19 0;
#X connect 21 0 8 0;
#X connect 22 0 9 0;
#X connect 24 0 21 1;
#X restore 316 103 pd ctlandpgm 13;
#N canvas 216 354 392 370 ctlandpgm 0;
#X obj 129 28 r patchctl;
#X floatatom 168 160 5 0 0 0 - - -, f 5;
#X floatatom 203 159 5 0 0 0 - - -, f 5;
#X obj 190 132 preset_node;
#X obj 92 115 preset_node;
#X obj 134 194 int;
#X obj 166 192 int;
#X obj 44 83 bng 15 250 50 0 empty \$0-recallbang empty 17 7 0 10 -262144
-1 -1;
#X obj 56 150 t b b;
#X obj 148 337 s patchctl;
#X floatatom 168 160 5 0 0 0 - - -, f 5;
#X floatatom 203 159 5 0 0 0 - - -, f 5;
#X obj 134 194 int;
#X obj 166 192 int;
#X obj 168 96 unpack f f;
#X obj 150 239 pack f f f;
#X obj 199 212 \$1, f 2;
#X obj 200 188 loadbang;
#X obj 148 60 route 0;
#X obj 215 28 \$1, f 2;
#X obj 216 4 loadbang;
#X obj 37 113 del;
#X msg 148 274 \$3 \$1 \$2;
#X obj 234 240 s chansel;
#X obj 69 81 * 10;
#X connect 0 0 18 0;
#X connect 1 0 5 1;
#X connect 2 0 6 1;
#X connect 3 0 2 0;
#X connect 4 0 1 0;
#X connect 5 0 15 0;
#X connect 6 0 15 1;
#X connect 7 0 21 0;
#X connect 8 0 5 0;
#X connect 8 1 6 0;
#X connect 10 0 12 1;
#X connect 11 0 13 1;
#X connect 14 0 1 0;
#X connect 14 1 2 0;
#X connect 15 0 22 0;
#X connect 16 0 15 2;
#X connect 16 0 23 0;
#X connect 17 0 16 0;
#X connect 18 0 14 0;
#X connect 19 0 18 1;
#X connect 19 0 24 0;
#X connect 20 0 19 0;
#X connect 21 0 8 0;
#X connect 22 0 9 0;
#X connect 24 0 21 1;
#X restore 316 123 pd ctlandpgm 14;
#N canvas 216 354 392 370 ctlandpgm 0;
#X obj 129 28 r patchctl;
#X floatatom 168 160 5 0 0 0 - - -, f 5;
#X floatatom 203 159 5 0 0 0 - - -, f 5;
#X obj 190 132 preset_node;
#X obj 92 115 preset_node;
#X obj 134 194 int;
#X obj 166 192 int;
#X obj 44 83 bng 15 250 50 0 empty \$0-recallbang empty 17 7 0 10 -262144
-1 -1;
#X obj 56 150 t b b;
#X obj 148 337 s patchctl;
#X floatatom 168 160 5 0 0 0 - - -, f 5;
#X floatatom 203 159 5 0 0 0 - - -, f 5;
#X obj 134 194 int;
#X obj 166 192 int;
#X obj 168 96 unpack f f;
#X obj 150 239 pack f f f;
#X obj 199 212 \$1, f 2;
#X obj 200 188 loadbang;
#X obj 148 60 route 0;
#X obj 215 28 \$1, f 2;
#X obj 216 4 loadbang;
#X obj 37 113 del;
#X msg 148 274 \$3 \$1 \$2;
#X obj 234 240 s chansel;
#X obj 69 81 * 10;
#X connect 0 0 18 0;
#X connect 1 0 5 1;
#X connect 2 0 6 1;
#X connect 3 0 2 0;
#X connect 4 0 1 0;
#X connect 5 0 15 0;
#X connect 6 0 15 1;
#X connect 7 0 21 0;
#X connect 8 0 5 0;
#X connect 8 1 6 0;
#X connect 10 0 12 1;
#X connect 11 0 13 1;
#X connect 14 0 1 0;
#X connect 14 1 2 0;
#X connect 15 0 22 0;
#X connect 16 0 15 2;
#X connect 16 0 23 0;
#X connect 17 0 16 0;
#X connect 18 0 14 0;
#X connect 19 0 18 1;
#X connect 19 0 24 0;
#X connect 20 0 19 0;
#X connect 21 0 8 0;
#X connect 22 0 9 0;
#X connect 24 0 21 1;
#X restore 316 143 pd ctlandpgm 15;
#N canvas 216 354 392 370 ctlandpgm 0;
#X obj 129 28 r patchctl;
#X floatatom 168 160 5 0 0 0 - - -, f 5;
#X floatatom 203 159 5 0 0 0 - - -, f 5;
#X obj 190 132 preset_node;
#X obj 92 115 preset_node;
#X obj 134 194 int;
#X obj 166 192 int;
#X obj 44 83 bng 15 250 50 0 empty \$0-recallbang empty 17 7 0 10 -262144
-1 -1;
#X obj 56 150 t b b;
#X obj 148 337 s patchctl;
#X floatatom 168 160 5 0 0 0 - - -, f 5;
#X floatatom 203 159 5 0 0 0 - - -, f 5;
#X obj 134 194 int;
#X obj 166 192 int;
#X obj 168 96 unpack f f;
#X obj 150 239 pack f f f;
#X obj 199 212 \$1, f 2;
#X obj 200 188 loadbang;
#X obj 148 60 route 0;
#X obj 215 28 \$1, f 2;
#X obj 216 4 loadbang;
#X obj 37 113 del;
#X msg 148 274 \$3 \$1 \$2;
#X obj 234 240 s chansel;
#X obj 69 81 * 10;
#X connect 0 0 18 0;
#X connect 1 0 5 1;
#X connect 2 0 6 1;
#X connect 3 0 2 0;
#X connect 4 0 1 0;
#X connect 5 0 15 0;
#X connect 6 0 15 1;
#X connect 7 0 21 0;
#X connect 8 0 5 0;
#X connect 8 1 6 0;
#X connect 10 0 12 1;
#X connect 11 0 13 1;
#X connect 14 0 1 0;
#X connect 14 1 2 0;
#X connect 15 0 22 0;
#X connect 16 0 15 2;
#X connect 16 0 23 0;
#X connect 17 0 16 0;
#X connect 18 0 14 0;
#X connect 19 0 18 1;
#X connect 19 0 24 0;
#X connect 20 0 19 0;
#X connect 21 0 8 0;
#X connect 22 0 9 0;
#X connect 24 0 21 1;
#X restore 316 163 pd ctlandpgm 16;
#X obj 637 18 bng 15 250 50 0 empty empty empty 17 7 0 10 -262144 -1
-1;
#X msg 641 44 symbol Saves/;
#X msg 727 41 symbol Saves/;
#X connect 1 0 0 0;
#X connect 2 0 0 0;
#X connect 3 0 5 0;
#X connect 4 0 1 0;
#X connect 5 0 6 0;
#X connect 5 1 2 0;
#X connect 24 0 0 0;
#X connect 25 0 0 0;
#X connect 26 0 25 0;
#X connect 27 0 24 0;
#X connect 28 0 46 0;
#X connect 44 0 45 0;
#X connect 45 0 27 0;
#X connect 46 0 26 0;
#X restore 185 408 pd savestates;
#N canvas 390 200 450 300 random 0;
#X obj 144 242 noteout;
#X obj 191 174 random 16;
#X obj 206 200 + 1;
#X obj 103 131 random 24;
#X obj 101 151 + 40;
#X obj 151 152 t f b;
#X obj 223 43 tgl 15 0 empty empty empty 17 7 0 10 -262144 -1 -1 0
1;
#X floatatom 89 236 5 0 0 0 - - -, f 5;
#X obj 106 98 metro 250;
#X obj 90 194 makenote 120 235;
#X connect 1 0 2 0;
#X connect 2 0 0 2;
#X connect 3 0 4 0;
#X connect 4 0 5 0;
#X connect 5 0 9 0;
#X connect 5 1 1 0;
#X connect 6 0 8 0;
#X connect 8 0 3 0;
#X connect 9 0 0 0;
#X connect 9 1 0 1;
#X connect 9 1 7 0;
#X coords 0 -1 1 1 162 18 1 78 42;
#X restore 235 372 pd random note out test;
#X obj 94 345 spigot 0;
#X obj 102 320 r verbose;
#N canvas 390 200 196 227 toggle 0;
#X obj 325 44 r chansel;
#X obj 312 173 makefilename tog%d;
#X msg 311 198 \; \$1 0 \;;
#X obj 384 95 t b f;
#X obj 354 144 sel 0;
#X obj 319 90 countto 16;
#X obj 271 104 sel 0;
#X obj 296 126 bang;
#X obj 360 71 sel 0;
#X obj 342 119 + 1;
#X obj 295 148 del 10;
#X text 349 202 toggle define;
#X connect 0 0 8 0;
#X connect 1 0 2 0;
#X connect 3 0 5 0;
#X connect 3 1 4 1;
#X connect 4 1 1 0;
#X connect 5 0 6 0;
#X connect 5 0 9 0;
#X connect 6 1 7 0;
#X connect 7 0 10 0;
#X connect 8 1 3 0;
#X connect 9 0 4 0;
#X connect 10 0 5 0;
#X restore 280 408 pd toggle behavior;
#X obj 81 397 tgl 48 0 verbose empty VERBOSE 3 7 0 10 -262144 -1 -1
0 1;
#X obj 411 308 spigot 0;
#X obj 419 283 r verbose;
#X obj 380 330 print chansel;
#X connect 1 0 4 0;
#X connect 2 0 3 0;
#X connect 3 1 5 0;
#X connect 3 1 90 0;
#X connect 5 0 4 1;
#X connect 41 0 40 0;
#X connect 42 0 44 0;
#X connect 43 0 44 1;
#X connect 43 0 45 0;
#X connect 44 0 41 0;
#X connect 45 0 44 0;
#X connect 46 0 50 0;
#X connect 47 0 53 0;
#X connect 48 0 49 0;
#X connect 49 0 52 0;
#X connect 50 1 51 0;
#X connect 51 0 48 0;
#X connect 51 0 47 0;
#X connect 52 0 42 0;
#X connect 53 0 43 0;
#X connect 54 0 86 0;
#X connect 56 0 63 0;
#X connect 57 0 60 0;
#X connect 57 1 61 1;
#X connect 58 0 57 0;
#X connect 59 0 57 0;
#X connect 60 0 56 0;
#X connect 61 0 57 0;
#X connect 62 0 63 0;
#X connect 63 0 68 0;
#X connect 64 1 61 0;
#X connect 64 2 59 0;
#X connect 64 3 58 0;
#X connect 65 0 64 0;
#X connect 66 0 67 0;
#X connect 67 1 62 0;
#X connect 68 0 71 0;
#X connect 68 1 69 1;
#X connect 69 0 70 0;
#X connect 71 0 69 0;
#X connect 73 0 72 1;
#X connect 74 0 83 0;
#X connect 74 1 73 0;
#X connect 75 0 74 0;
#X connect 75 0 79 1;
#X connect 75 0 76 0;
#X connect 76 0 81 0;
#X connect 76 1 77 0;
#X connect 77 0 79 0;
#X connect 78 0 79 0;
#X connect 79 0 80 0;
#X connect 80 0 75 0;
#X connect 83 0 72 0;
#X connect 86 0 55 0;
#X connect 87 0 86 1;
#X connect 90 0 92 0;
#X connect 91 0 90 1;
#X coords 0 -1 1 1 450 175 2 166 100;
