#N canvas 395 149 777 432 10;
#X obj 95 98 bignanosynthcontrol 0;
#N canvas 627 295 555 412 namechart 0;
#X obj 774 106 image megaman.gif 0;
#X obj 295 70 route 0 1 2 3 4;
#X obj 249 17 countto 5;
#X obj 249 39 list append;
#X obj 247 -4 bang;
#X msg 169 8 clear;
#X obj 201 -48 bang;
#X msg 120 -23 stop;
#X obj 143 -75 bng 15 250 50 0 empty empty empty 17 7 0 10 -262144
-1 -1;
#X obj 166 -71 countto 6;
#X obj 122 -45 sel 5;
#X obj 259 -46 t b a;
#N canvas 0 80 1067 599 5bankread 0;
#X obj 220 -201 textfile;
#X msg 349 -300 rewind;
#X obj 485 -349 loadbang;
#X msg 252 -225 read bank.a.txt;
#X obj 400 -201 textfile;
#X msg 432 -225 read bank.b.txt;
#X obj 570 -201 textfile;
#X obj 710 -201 textfile;
#X obj 859 -200 textfile;
#X msg 892 -225 read bank.e.txt;
#X msg 742 -225 read bank.d.txt;
#X msg 602 -225 read bank.c.txt;
#X obj 485 -326 t b b;
#N canvas 342 489 383 279 throwaway 0;
#X obj 157 -4 inlet;
#X obj 134 215 outlet;
#X obj 43 32 r namebank;
#X obj 48 102 unpack;
#X obj 197 156 * 8;
#X obj 196 179 until;
#X obj 193 217 outlet;
#X obj 248 234 outlet;
#X obj 76 217 outlet;
#X obj 25 218 outlet;
#X obj 161 56 s clearscreen;
#X obj 170 130 t b b f b;
#X obj 111 106 t f b;
#X obj 173 106 pipe 120;
#N canvas 0 0 450 300 init_ignore 0;
#X obj 134 92 sel 0;
#X obj 130 72 route 15;
#X obj 135 114 countto 2;
#X obj 156 140 sel 1;
#X msg 160 162 1;
#X obj 93 159 spigot 0;
#X obj 120 19 inlet;
#X obj 128 227 outlet;
#X obj 233 -2 loadbang;
#X obj 235 28 del 3000;
#X connect 0 0 2 0;
#X connect 1 0 0 0;
#X connect 2 0 3 0;
#X connect 3 0 4 0;
#X connect 4 0 5 1;
#X connect 5 0 7 0;
#X connect 6 0 5 0;
#X connect 6 0 1 0;
#X connect 8 0 9 0;
#X connect 9 0 4 0;
#X restore 42 71 pd init_ignore;
#X connect 2 0 14 0;
#X connect 3 0 9 0;
#X connect 3 1 12 0;
#X connect 4 0 5 0;
#X connect 5 0 6 0;
#X connect 11 0 8 0;
#X connect 11 1 1 0;
#X connect 11 2 4 0;
#X connect 11 3 7 0;
#X connect 12 0 13 0;
#X connect 12 1 10 0;
#X connect 13 0 11 0;
#X connect 14 0 3 0;
#X restore 623 -457 pd throwaway;
#X obj 720 -128 spigot;
#X msg 749 -149 1;
#X msg 775 -149 0;
#N canvas 0 0 450 300 distribute_bangs_across_banks 0;
#X obj 25 245 outlet;
#X obj 95 245 outlet;
#X obj 155 245 outlet;
#X obj 215 245 outlet;
#X obj 285 245 outlet;
#X obj 78 16 inlet;
#X obj 143 155 sel 0 1 2 3 4;
#X obj 147 130 % 5;
#X obj 105 97 sel 40;
#X obj 111 70 countto 41;
#X obj 209 70 bang;
#X obj 83 41 bang;
#X obj 198 96 del 20;
#X connect 5 0 11 0;
#X connect 6 0 0 0;
#X connect 6 1 1 0;
#X connect 6 2 2 0;
#X connect 6 3 3 0;
#X connect 6 4 4 0;
#X connect 7 0 6 0;
#X connect 8 1 7 0;
#X connect 8 1 10 0;
#X connect 9 0 8 0;
#X connect 10 0 12 0;
#X connect 11 0 9 0;
#X connect 12 0 9 0;
#X restore 422 -272 pd distribute_bangs_across_banks;
#X obj 699 -54 outlet;
#X obj 451 -410 s channelchoice;
#X obj 793 -392 loadbang;
#X obj 794 -364 del 3000;
#X connect 0 0 14 0;
#X connect 1 0 0 0;
#X connect 1 0 4 0;
#X connect 1 0 6 0;
#X connect 1 0 7 0;
#X connect 1 0 8 0;
#X connect 2 0 12 0;
#X connect 3 0 0 0;
#X connect 4 0 14 0;
#X connect 5 0 4 0;
#X connect 6 0 14 0;
#X connect 7 0 14 0;
#X connect 8 0 14 0;
#X connect 9 0 8 0;
#X connect 10 0 7 0;
#X connect 11 0 6 0;
#X connect 12 0 1 0;
#X connect 12 1 9 0;
#X connect 12 1 10 0;
#X connect 12 1 11 0;
#X connect 12 1 5 0;
#X connect 12 1 3 0;
#X connect 13 0 19 0;
#X connect 13 1 17 0;
#X connect 13 2 15 0;
#X connect 13 3 0 0;
#X connect 13 3 4 0;
#X connect 13 3 6 0;
#X connect 13 3 7 0;
#X connect 13 3 8 0;
#X connect 13 4 1 0;
#X connect 13 4 16 0;
#X connect 14 0 18 0;
#X connect 15 0 14 1;
#X connect 16 0 14 1;
#X connect 17 0 0 0;
#X connect 17 1 4 0;
#X connect 17 2 6 0;
#X connect 17 3 7 0;
#X connect 17 4 8 0;
#X connect 20 0 21 0;
#X connect 21 0 15 0;
#X restore 235 -73 pd 5bankread;
#X obj 107 50 s namebank;
#X msg 108 25 0 3;
#X obj 362 -255 pack;
#X floatatom 347 -279 5 0 0 0 - - -, f 5;
#X floatatom 387 -282 5 0 0 0 - - -, f 5;
#X obj 165 -119 r clearscreen;
#X obj 166 -95 bang;
#X msg 363 -231 \$1 \$2;
#X obj 407 65 ctlout;
#X obj 460 62 pgmout;
#X floatatom 455 -1 5 0 0 0 - - -, f 5;
#X obj 376 -38 hradio 15 1 0 5 empty empty empty 0 -8 0 10 -262144
-1 -1 1;
#X obj 455 23 + 1;
#X obj 434 -117 r patchctl;
#X obj 437 -64 unpack f f f;
#X msg 435 -91 \$3 \$2 \$1;
#X obj 473 -31 % 128;
#X obj 314 224 outlet;
#X floatatom 521 67 5 0 0 0 - - -, f 5;
#X obj 498 26 sel 0;
#X obj 496 -6 r chansel;
#X obj 565 21 pack f f f;
#X obj 378 -6 pipe 10;
#X obj 198 -30 delay 10;
#N canvas 390 200 450 300 list 0;
#X obj 101 101 scrolllist 90 88 86 {Helvetica\ 10\ bold} black green
red;
#X obj 86 54 list2symbol;
#X msg 109 78 add \$1;
#X msg 176 55 clear;
#X obj 86 3 inlet;
#X obj 99 204 outlet;
#X obj 145 22 route clear;
#X obj 165 236 list prepend python namerecog.py ";
#X obj 165 257 list append ";
#X obj 166 300 shell;
#X obj 165 324 pack f f;
#X obj 164 371 s patchctl;
#X msg 165 347 \$2 \$1 4;
#X msg 165 278 \$1 \$2 \$3 \$4 \$5;
#X obj 325 291 r chansel;
#X obj 325 313 sel 0;
#X connect 0 0 5 0;
#X connect 0 0 7 0;
#X connect 1 0 2 0;
#X connect 2 0 0 0;
#X connect 3 0 0 0;
#X connect 4 0 6 0;
#X connect 6 0 3 0;
#X connect 6 1 1 0;
#X connect 7 0 8 0;
#X connect 8 0 13 0;
#X connect 9 0 10 0;
#X connect 10 0 12 0;
#X connect 12 0 11 0;
#X connect 13 0 9 0;
#X connect 14 0 15 0;
#X connect 15 1 10 1;
#X coords 0 -1 1 1 90 88 2 100 100;
#X restore 465 101 pd list;
#N canvas 390 200 450 300 list 0;
#X obj 101 101 scrolllist 90 88 86 {Helvetica\ 10\ bold} black green
red;
#X obj 86 54 list2symbol;
#X msg 109 78 add \$1;
#X msg 176 55 clear;
#X obj 86 3 inlet;
#X obj 99 204 outlet;
#X obj 145 22 route clear;
#X obj 155 256 list prepend python namerecog.py ";
#X obj 155 277 list append ";
#X obj 156 320 shell;
#X obj 155 344 pack f f;
#X obj 154 391 s patchctl;
#X msg 155 367 \$2 \$1 3;
#X msg 155 298 \$1 \$2 \$3 \$4 \$5;
#X obj 306 299 r chansel;
#X obj 306 321 sel 0;
#X connect 0 0 5 0;
#X connect 0 0 7 0;
#X connect 1 0 2 0;
#X connect 2 0 0 0;
#X connect 3 0 0 0;
#X connect 4 0 6 0;
#X connect 6 0 3 0;
#X connect 6 1 1 0;
#X connect 7 0 8 0;
#X connect 8 0 13 0;
#X connect 9 0 10 0;
#X connect 10 0 12 0;
#X connect 12 0 11 0;
#X connect 13 0 9 0;
#X connect 14 0 15 0;
#X connect 15 1 10 1;
#X coords 0 -1 1 1 90 88 2 100 100;
#X restore 374 101 pd list;
#N canvas 390 200 450 300 list 0;
#X obj 101 101 scrolllist 90 88 86 {Helvetica\ 10\ bold} black green
red;
#X obj 86 54 list2symbol;
#X msg 109 78 add \$1;
#X msg 176 55 clear;
#X obj 86 3 inlet;
#X obj 99 204 outlet;
#X obj 145 22 route clear;
#X obj 145 246 list prepend python namerecog.py ";
#X obj 145 267 list append ";
#X obj 146 310 shell;
#X obj 145 334 pack f f;
#X obj 144 381 s patchctl;
#X msg 145 357 \$2 \$1 2;
#X msg 145 288 \$1 \$2 \$3 \$4 \$5;
#X obj 292 287 r chansel;
#X obj 292 309 sel 0;
#X connect 0 0 5 0;
#X connect 0 0 7 0;
#X connect 1 0 2 0;
#X connect 2 0 0 0;
#X connect 3 0 0 0;
#X connect 4 0 6 0;
#X connect 6 0 3 0;
#X connect 6 1 1 0;
#X connect 7 0 8 0;
#X connect 8 0 13 0;
#X connect 9 0 10 0;
#X connect 10 0 12 0;
#X connect 12 0 11 0;
#X connect 13 0 9 0;
#X connect 14 0 15 0;
#X connect 15 1 10 1;
#X coords 0 -1 1 1 90 88 2 100 100;
#X restore 283 101 pd list;
#N canvas 390 200 450 300 list 0;
#X obj 101 101 scrolllist 90 88 86 {Helvetica\ 10\ bold} black green
red;
#X obj 86 54 list2symbol;
#X msg 109 78 add \$1;
#X msg 176 55 clear;
#X obj 86 3 inlet;
#X obj 99 204 outlet;
#X obj 145 22 route clear;
#X obj 135 236 list prepend python namerecog.py ";
#X obj 135 257 list append ";
#X obj 136 300 shell;
#X obj 135 324 pack f f;
#X obj 134 371 s patchctl;
#X msg 135 346 \$2 \$1 1;
#X msg 135 278 \$1 \$2 \$3 \$4 \$5;
#X obj 215 301 r chansel;
#X obj 215 323 sel 0;
#X connect 0 0 5 0;
#X connect 0 0 7 0;
#X connect 1 0 2 0;
#X connect 2 0 0 0;
#X connect 3 0 0 0;
#X connect 4 0 6 0;
#X connect 6 0 3 0;
#X connect 6 1 1 0;
#X connect 7 0 8 0;
#X connect 8 0 13 0;
#X connect 9 0 10 0;
#X connect 10 0 12 0;
#X connect 12 0 11 0;
#X connect 13 0 9 0;
#X connect 14 0 15 0;
#X connect 15 1 10 1;
#X coords 0 -1 1 1 90 88 2 100 100;
#X restore 192 101 pd list;
#N canvas 157 151 533 535 list 0;
#X obj 101 101 scrolllist 90 88 86 {Helvetica\ 10\ bold} black green
red;
#X obj 86 54 list2symbol;
#X msg 109 78 add \$1;
#X msg 176 55 clear;
#X obj 86 3 inlet;
#X obj -37 431 outlet;
#X obj 145 22 route clear;
#X obj 125 226 list prepend python namerecog.py ";
#X obj 125 247 list append ";
#X obj 126 290 shell;
#X obj 124 391 s patchctl;
#X msg 125 268 \$1 \$2 \$3 \$4 \$5;
#X obj 182 296 r chansel;
#X obj 182 318 sel 0;
#X msg 125 367 \$2 \$1 0;
#X obj 125 334 pack f f;
#X connect 0 0 5 0;
#X connect 0 0 7 0;
#X connect 1 0 2 0;
#X connect 2 0 0 0;
#X connect 3 0 0 0;
#X connect 4 0 6 0;
#X connect 6 0 3 0;
#X connect 6 1 1 0;
#X connect 7 0 8 0;
#X connect 8 0 11 0;
#X connect 9 0 15 0;
#X connect 11 0 9 0;
#X connect 12 0 13 0;
#X connect 13 1 15 1;
#X connect 14 0 10 0;
#X connect 15 0 14 0;
#X coords 0 -1 1 1 90 88 2 100 100;
#X restore 101 101 pd list;
#X obj 567 49 print pgm;
#X connect 1 0 41 0;
#X connect 1 1 40 0;
#X connect 1 2 39 0;
#X connect 1 3 38 0;
#X connect 1 4 37 0;
#X connect 2 0 3 0;
#X connect 3 0 1 0;
#X connect 4 0 2 0;
#X connect 5 0 3 1;
#X connect 5 0 4 0;
#X connect 6 0 36 0;
#X connect 7 0 36 0;
#X connect 8 0 9 0;
#X connect 9 0 6 0;
#X connect 9 0 10 0;
#X connect 10 0 7 0;
#X connect 11 0 4 0;
#X connect 11 1 3 1;
#X connect 12 0 11 0;
#X connect 14 0 13 0;
#X connect 15 0 20 0;
#X connect 16 0 15 0;
#X connect 17 0 15 1;
#X connect 18 0 19 0;
#X connect 19 0 9 0;
#X connect 20 0 0 0;
#X connect 23 0 25 0;
#X connect 24 0 35 0;
#X connect 25 0 22 0;
#X connect 25 0 34 1;
#X connect 26 0 28 0;
#X connect 27 0 24 0;
#X connect 27 0 21 0;
#X connect 27 1 29 0;
#X connect 28 0 27 0;
#X connect 29 0 23 0;
#X connect 32 1 22 1;
#X connect 32 1 21 2;
#X connect 32 1 31 0;
#X connect 32 1 34 2;
#X connect 33 0 32 0;
#X connect 34 0 42 0;
#X connect 35 0 21 0;
#X connect 36 0 9 0;
#X connect 36 0 5 0;
#X connect 37 0 30 0;
#X connect 38 0 30 0;
#X connect 39 0 30 0;
#X connect 40 0 30 0;
#X connect 41 0 30 0;
#X coords 0 -1 1 1 456 90 2 100 100;
#X restore 167 183 pd namechart;
#X obj 194 280 r chansel;
#X obj 193 306 sel 0;
#X obj 161 389 send;
#X obj 183 368 makefilename \$0-2progname%d;
#X obj 167 101 cnv 15 443 80 empty empty empty 20 12 0 14 -1 -66577
0;
#X obj 166 101 cnv 15 110 18 empty \$0-selecshun empty 20 12 0 14 -4034
-66577 0;
#X obj 169 102 tgl 15 0 chansel tog1 1 6 8 0 10 -1 -4034 -4034 1 1
;
#X obj 169 123 tgl 15 0 chansel tog2 2 6 9 0 10 -1 -4034 -4034 0 2
;
#X obj 169 144 tgl 15 0 chansel tog3 3 6 9 0 10 -1 -4034 -4034 0 3
;
#X obj 169 165 tgl 15 0 chansel tog4 4 6 9 0 10 -1 -4034 -4034 0 4
;
#X obj 276 102 tgl 15 0 chansel tog5 5 6 9 0 10 -1 -4034 -4034 0 5
;
#X obj 276 123 tgl 15 0 chansel tog6 6 6 9 0 10 -1 -4034 -4034 0 6
;
#X obj 276 144 tgl 15 0 chansel tog7 7 6 9 0 10 -1 -4034 -4034 0 7
;
#X obj 276 166 tgl 15 0 chansel tog8 8 6 9 0 10 -1 -4034 -4034 0 8
;
#X obj 383 102 tgl 15 0 chansel tog9 9 6 9 0 10 -1 -4034 -4034 0 9
;
#X obj 383 123 tgl 15 0 chansel tog10 10 2 9 0 10 -1 -4034 -4034 0
10;
#X obj 382 144 tgl 15 0 chansel tog11 11 2 9 0 10 -1 -4034 -4034 0
11;
#X obj 382 166 tgl 15 0 chansel tog12 12 2 9 0 10 -1 -4034 -4034 0
12;
#X obj 489 102 tgl 15 0 chansel tog13 13 2 9 0 10 -1 -4034 -4034 0
13;
#X obj 489 123 tgl 15 0 chansel tog14 14 2 9 0 10 -1 -4034 -4034 0
14;
#X obj 489 144 tgl 15 0 chansel tog15 15 2 9 0 10 -1 -4034 -4034 0
15;
#X obj 489 166 tgl 15 0 chansel tog16 16 2 9 0 10 -1 -4034 -4034 0
16;
#X symbolatom 187 102 14 0 0 0 - #0-2progname1 #0-progname1, f 14
;
#X symbolatom 187 123 14 0 0 0 - #0-2progname2 #0-progname2, f 14
;
#X symbolatom 187 144 14 0 0 0 - #0-2progname3 #0-progname3, f 14
;
#X symbolatom 187 165 14 0 0 0 - #0-2progname4 #0-progname4, f 14
;
#X symbolatom 294 102 14 0 0 0 - #0-2progname5 #0-progname5, f 14
;
#X symbolatom 294 123 14 0 0 0 - #0-2progname6 #0-progname6, f 14
;
#X symbolatom 294 144 14 0 0 0 - #0-2progname7 #0-progname7, f 14
;
#X symbolatom 294 165 14 0 0 0 - #0-2progname8 #0-progname8, f 14
;
#X symbolatom 400 102 14 0 0 0 - #0-2progname9 #0-progname9, f 14
;
#X symbolatom 400 123 14 0 0 0 - #0-2progname10 #0-progname10, f 14
;
#X symbolatom 400 144 14 0 0 0 - #0-2progname11 #0-progname11, f 14
;
#X symbolatom 400 165 14 0 0 0 - #0-2progname12 #0-progname12, f 14
;
#X symbolatom 507 102 14 0 0 0 - #0-2progname13 #0-progname13, f 14
;
#X symbolatom 507 123 14 0 0 0 - #0-2progname14 #0-progname14, f 14
;
#X symbolatom 507 144 14 0 0 0 - #0-2progname15 #0-progname15, f 14
;
#X symbolatom 507 165 14 0 0 0 - #0-2progname16 #0-progname16, f 14
;
#X obj 403 475 s \$0-selecshun;
#X msg 440 451 pos \$1 \$2;
#X floatatom 449 406 5 0 0 0 - - -, f 5;
#X floatatom 494 407 5 0 0 0 - - -, f 5;
#X obj 434 429 pack f f;
#X obj 398 406 bang;
#X obj 424 284 r chansel;
#X obj 497 329 % 4;
#X obj 412 335 * 0.25;
#X obj 395 357 int;
#X obj 448 305 sel 0;
#X obj 489 305 - 1;
#X obj 455 352 expr $f1*21+101;
#X obj 84 296 r patchctl;
#X obj 63 367 print patchctl;
#X msg 547 451 add \$1;
#X obj 590 405 textfile;
#X msg 593 327 read nanobank.txt;
#X msg 575 347 rewind;
#X obj 548 428 list2symbol;
#N canvas 0 0 450 300 bangtildun 0;
#X obj 112 52 inlet;
#X obj 261 24 inlet;
#X obj 86 254 outlet;
#X obj 251 249 outlet;
#X msg 204 86 stop;
#X obj 227 177 int 0;
#X obj 268 178 + 1;
#X obj 251 211 int;
#X obj 193 179 bang;
#X msg 252 149 0;
#X obj 37 131 delay 5;
#X obj 228 60 bang;
#X obj 134 128 delay 50;
#X obj 84 228 spigot;
#X msg 148 192 0;
#X obj 84 176 t b b;
#X msg 112 200 1;
#X connect 0 0 12 0;
#X connect 0 0 15 0;
#X connect 1 0 11 0;
#X connect 4 0 8 0;
#X connect 4 0 9 0;
#X connect 4 0 10 0;
#X connect 4 0 12 0;
#X connect 4 0 14 0;
#X connect 5 0 6 0;
#X connect 6 0 5 1;
#X connect 6 0 7 1;
#X connect 7 0 3 0;
#X connect 8 0 7 0;
#X connect 9 0 5 1;
#X connect 10 0 12 0;
#X connect 11 0 4 0;
#X connect 12 0 5 0;
#X connect 12 0 10 0;
#X connect 12 0 15 0;
#X connect 13 0 2 0;
#X connect 14 0 13 1;
#X connect 15 0 13 0;
#X connect 15 1 16 0;
#X connect 16 0 13 1;
#X restore 564 361 pd bangtildun;
#X obj 738 315 bng 43 250 50 0 empty empty empty 17 7 0 10 -262144
-1 -1;
#X obj 653 370 tof/pmenu 1 1 black green red;
#X obj 543 310 t b b b b;
#X obj 543 284 loadbang;
#X obj 712 268 r chansel;
#X obj 711 294 sel 0;
#X obj 669 395 t b f;
#X obj 673 441 pack;
#X obj 673 464 s namebank;
#X msg 659 420 0;
#X obj 667 264 send;
#X obj 661 201 makefilename \$0-2progname%d;
#X obj 686 175 t b f;
#X obj 710 150 + 1;
#X obj 771 109 sel 16;
#X obj 798 134 bang;
#X obj 641 112 loadbang;
#X obj 710 105 int 0;
#X obj 709 128 % 16;
#X obj 756 147 bng 15 250 50 0 empty empty empty 17 7 0 10 -262144
-1 -1;
#X obj 723 176 print;
#X msg 642 238 symbol off;
#N canvas 219 470 882 257 savestates 0;
#X obj 524 218 preset_hub %hidden% %node% 2 1 0 %preset% 1 Afterglow
%node% 2 2 0 %preset% 1 Real\ Rock %node% 2 3 0 %preset% 1 TubularBel
%node% 2 4 0 %preset% 1 Amakudari %node% 2 5 0 %preset% 1 Trashy\ Kit
%node% 2 6 0 %preset% 1 off %node% 2 7 0 %preset% 1 off %node% 2 8
0 %preset% 1 off %node% 2 9 0 %preset% 1 off %node% 2 10 0 %preset%
1 off %node% 2 11 0 %preset% 1 off %node% 2 12 0 %preset% 1 off %node%
2 13 0 %preset% 1 off %node% 2 14 0 %preset% 1 off %node% 2 15 0 %preset%
1 off %node% 2 16 0 %preset% 1 off %node% 2 23 1 %preset% 1 4 %node%
2 23 2 %preset% 1 564 %node% 2 24 1 %node% 2 24 2 %node% 2 25 1 %preset%
1 2 %node% 2 25 2 %preset% 1 315 %node% 2 26 1 %preset% 1 3 %node%
2 26 2 %preset% 1 404 %node% 2 27 1 %node% 2 27 2 %node% 2 28 1 %node%
2 28 2 %node% 2 29 1 %node% 2 29 2 %node% 2 30 1 %node% 2 30 2 %node%
2 31 1 %node% 2 31 2 %node% 2 32 1 %node% 2 32 2 %node% 2 33 1 %node%
2 33 2 %node% 2 34 1 %node% 2 34 2 %node% 2 35 1 %preset% 1 3 %node%
2 35 2 %preset% 1 497 %node% 2 36 1 %preset% 1 1 %node% 2 36 2 %preset%
1 235 %node% 2 37 1 %preset% 1 0 %node% 2 37 2 %preset% 1 14 %node%
2 38 1 %preset% 1 2 %node% 2 38 2 %preset% 1 368;
#N canvas 256 354 166 137 name 0;
#X obj 12 22 preset_node;
#X symbolatom 48 78 10 0 0 0 - - -, f 10;
#X obj 53 42 r \$0-2progname1;
#X obj 15 102 symbol;
#X obj 15 123 s \$0-2progname1;
#X obj 19 67 bng 15 250 50 0 empty recallbang empty 17 7 0 10 -262144
-1 -1;
#X connect 0 0 1 0;
#X connect 1 0 3 1;
#X connect 2 0 1 0;
#X connect 3 0 4 0;
#X connect 5 0 3 0;
#X restore 12 9 pd name memory;
#N canvas 256 354 166 137 name 0;
#X obj 12 22 preset_node;
#X symbolatom 48 78 10 0 0 0 - - -, f 10;
#X obj 15 102 symbol;
#X obj 8 50 bng 15 250 50 0 empty recallbang empty 17 7 0 10 -262144
-1 -1;
#X obj 53 42 r \$0-2progname2;
#X obj 15 123 s \$0-2progname2;
#X obj 8 70 del 25;
#X connect 0 0 1 0;
#X connect 1 0 2 1;
#X connect 2 0 5 0;
#X connect 3 0 6 0;
#X connect 4 0 1 0;
#X connect 6 0 2 0;
#X restore 12 29 pd name memory;
#N canvas 256 354 166 137 name 0;
#X obj 12 22 preset_node;
#X symbolatom 48 78 10 0 0 0 - - -, f 10;
#X obj 15 102 symbol;
#X obj 7 45 bng 15 250 50 0 empty recallbang empty 17 7 0 10 -262144
-1 -1;
#X obj 53 42 r \$0-2progname3;
#X obj 15 123 s \$0-2progname3;
#X obj 7 65 del 50;
#X connect 0 0 1 0;
#X connect 1 0 2 1;
#X connect 2 0 5 0;
#X connect 3 0 6 0;
#X connect 4 0 1 0;
#X connect 6 0 2 0;
#X restore 12 49 pd name memory;
#N canvas 256 354 166 137 name 0;
#X obj 12 22 preset_node;
#X symbolatom 48 78 10 0 0 0 - - -, f 10;
#X obj 15 102 symbol;
#X obj 5 44 bng 15 250 50 0 empty recallbang empty 17 7 0 10 -262144
-1 -1;
#X obj 53 42 r \$0-2progname4;
#X obj 15 123 s \$0-2progname4;
#X obj 5 64 del 75;
#X connect 0 0 1 0;
#X connect 1 0 2 1;
#X connect 2 0 5 0;
#X connect 3 0 6 0;
#X connect 4 0 1 0;
#X connect 6 0 2 0;
#X restore 12 69 pd name memory;
#N canvas 256 354 166 137 name 0;
#X obj 12 22 preset_node;
#X symbolatom 48 78 10 0 0 0 - - -, f 10;
#X obj 15 102 symbol;
#X obj 8 45 bng 15 250 50 0 empty recallbang empty 17 7 0 10 -262144
-1 -1;
#X obj 53 42 r \$0-2progname5;
#X obj 15 123 s \$0-2progname5;
#X obj 8 65 del 25;
#X connect 0 0 1 0;
#X connect 1 0 2 1;
#X connect 2 0 5 0;
#X connect 3 0 6 0;
#X connect 4 0 1 0;
#X connect 6 0 2 0;
#X restore 112 9 pd name memory;
#N canvas 256 354 166 137 name 0;
#X obj 12 22 preset_node;
#X symbolatom 48 78 10 0 0 0 - - -, f 10;
#X obj 15 102 symbol;
#X obj 8 46 bng 15 250 50 0 empty recallbang empty 17 7 0 10 -262144
-1 -1;
#X obj 53 42 r \$0-2progname6;
#X obj 15 123 s \$0-2progname6;
#X obj 8 66 del 50;
#X connect 0 0 1 0;
#X connect 1 0 2 1;
#X connect 2 0 5 0;
#X connect 3 0 6 0;
#X connect 4 0 1 0;
#X connect 6 0 2 0;
#X restore 112 29 pd name memory;
#N canvas 256 354 166 137 name 0;
#X obj 12 22 preset_node;
#X symbolatom 48 78 10 0 0 0 - - -, f 10;
#X obj 15 102 symbol;
#X obj 7 45 bng 15 250 50 0 empty recallbang empty 17 7 0 10 -262144
-1 -1;
#X obj 53 42 r \$0-2progname7;
#X obj 15 123 s \$0-2progname7;
#X obj 7 65 del 75;
#X connect 0 0 1 0;
#X connect 1 0 2 1;
#X connect 2 0 5 0;
#X connect 3 0 6 0;
#X connect 4 0 1 0;
#X connect 6 0 2 0;
#X restore 112 49 pd name memory;
#N canvas 256 354 166 137 name 0;
#X obj 12 22 preset_node;
#X symbolatom 48 78 10 0 0 0 - - -, f 10;
#X obj 15 102 symbol;
#X obj 8 45 bng 15 250 50 0 empty recallbang empty 17 7 0 10 -262144
-1 -1;
#X obj 53 42 r \$0-2progname8;
#X obj 15 123 s \$0-2progname8;
#X obj 8 65 del 100;
#X connect 0 0 1 0;
#X connect 1 0 2 1;
#X connect 2 0 5 0;
#X connect 3 0 6 0;
#X connect 4 0 1 0;
#X connect 6 0 2 0;
#X restore 112 69 pd name memory;
#N canvas 256 354 166 137 name 0;
#X obj 12 22 preset_node;
#X symbolatom 48 78 10 0 0 0 - - -, f 10;
#X obj 15 102 symbol;
#X obj 6 58 bng 15 250 50 0 empty recallbang empty 17 7 0 10 -262144
-1 -1;
#X obj 53 42 r \$0-2progname9;
#X obj 15 123 s \$0-2progname9;
#X obj 6 78 del 50;
#X connect 0 0 1 0;
#X connect 1 0 2 1;
#X connect 2 0 5 0;
#X connect 3 0 6 0;
#X connect 4 0 1 0;
#X connect 6 0 2 0;
#X restore 212 9 pd name memory;
#N canvas 256 354 166 137 name 0;
#X obj 12 22 preset_node;
#X symbolatom 48 78 10 0 0 0 - - -, f 10;
#X obj 15 102 symbol;
#X obj 9 44 bng 15 250 50 0 empty recallbang empty 17 7 0 10 -262144
-1 -1;
#X obj 53 42 r \$0-2progname10;
#X obj 15 123 s \$0-2progname10;
#X obj 9 64 del 75;
#X connect 0 0 1 0;
#X connect 1 0 2 1;
#X connect 2 0 5 0;
#X connect 3 0 6 0;
#X connect 4 0 1 0;
#X connect 6 0 2 0;
#X restore 212 29 pd name memory;
#N canvas 256 354 166 137 name 0;
#X obj 12 22 preset_node;
#X symbolatom 48 78 10 0 0 0 - - -, f 10;
#X obj 15 102 symbol;
#X obj 8 50 bng 15 250 50 0 empty recallbang empty 17 7 0 10 -262144
-1 -1;
#X obj 53 42 r \$0-2progname11;
#X obj 15 123 s \$0-2progname11;
#X obj 8 70 del 100;
#X connect 0 0 1 0;
#X connect 1 0 2 1;
#X connect 2 0 5 0;
#X connect 3 0 6 0;
#X connect 4 0 1 0;
#X connect 6 0 2 0;
#X restore 212 49 pd name memory;
#N canvas 256 354 166 137 name 0;
#X obj 12 22 preset_node;
#X symbolatom 48 78 10 0 0 0 - - -, f 10;
#X obj 15 102 symbol;
#X obj 6 46 bng 15 250 50 0 empty recallbang empty 17 7 0 10 -262144
-1 -1;
#X obj 53 42 r \$0-2progname12;
#X obj 15 123 s \$0-2progname12;
#X obj 6 66 del 125;
#X connect 0 0 1 0;
#X connect 1 0 2 1;
#X connect 2 0 5 0;
#X connect 3 0 6 0;
#X connect 4 0 1 0;
#X connect 6 0 2 0;
#X restore 212 69 pd name memory;
#N canvas 256 354 166 137 name 0;
#X obj 12 22 preset_node;
#X symbolatom 48 78 10 0 0 0 - - -, f 10;
#X obj 15 102 symbol;
#X obj 4 41 bng 15 250 50 0 empty recallbang empty 17 7 0 10 -262144
-1 -1;
#X obj 53 42 r \$0-2progname13;
#X obj 15 123 s \$0-2progname13;
#X obj 4 61 del 75;
#X connect 0 0 1 0;
#X connect 1 0 2 1;
#X connect 2 0 5 0;
#X connect 3 0 6 0;
#X connect 4 0 1 0;
#X connect 6 0 2 0;
#X restore 312 9 pd name memory;
#N canvas 256 354 166 137 name 0;
#X obj 12 22 preset_node;
#X symbolatom 48 78 10 0 0 0 - - -, f 10;
#X obj 15 102 symbol;
#X obj 7 45 bng 15 250 50 0 empty recallbang empty 17 7 0 10 -262144
-1 -1;
#X obj 53 42 r \$0-2progname14;
#X obj 15 123 s \$0-2progname14;
#X obj 7 65 del 100;
#X connect 0 0 1 0;
#X connect 1 0 2 1;
#X connect 2 0 5 0;
#X connect 3 0 6 0;
#X connect 4 0 1 0;
#X connect 6 0 2 0;
#X restore 312 29 pd name memory;
#N canvas 256 354 166 137 name 0;
#X obj 12 22 preset_node;
#X symbolatom 48 78 10 0 0 0 - - -, f 10;
#X obj 15 102 symbol;
#X obj 8 52 bng 15 250 50 0 empty recallbang empty 17 7 0 10 -262144
-1 -1;
#X obj 53 42 r \$0-2progname15;
#X obj 15 123 s \$0-2progname15;
#X obj 8 72 del 125;
#X connect 0 0 1 0;
#X connect 1 0 2 1;
#X connect 2 0 5 0;
#X connect 3 0 6 0;
#X connect 4 0 1 0;
#X connect 6 0 2 0;
#X restore 312 49 pd name memory;
#N canvas 256 354 166 137 name 0;
#X obj 12 22 preset_node;
#X symbolatom 48 78 10 0 0 0 - - -, f 10;
#X obj 15 102 symbol;
#X obj 8 51 bng 15 250 50 0 empty recallbang empty 17 7 0 10 -262144
-1 -1;
#X obj 53 42 r \$0-2progname16;
#X obj 15 123 s \$0-2progname16;
#X obj 8 71 del 150;
#X connect 0 0 1 0;
#X connect 1 0 2 1;
#X connect 2 0 5 0;
#X connect 3 0 6 0;
#X connect 4 0 1 0;
#X connect 6 0 2 0;
#X restore 312 69 pd name memory;
#X msg 455 157 write \$1;
#X msg 652 105 read \$1;
#X obj 652 84 openpanel;
#X obj 456 134 savepanel;
#X msg 456 112 symbol Saves/;
#X msg 652 64 symbol Saves/;
#X obj 14 103 ctlandpgm 1;
#X obj 254 163 ctlandpgm 16;
#X obj 254 143 ctlandpgm 15;
#X obj 254 123 ctlandpgm 14;
#X obj 254 103 ctlandpgm 13;
#X obj 174 163 ctlandpgm 12;
#X obj 174 143 ctlandpgm 11;
#X obj 174 123 ctlandpgm 10;
#X obj 174 103 ctlandpgm 9;
#X obj 94 163 ctlandpgm 8;
#X obj 94 143 ctlandpgm 7;
#X obj 94 123 ctlandpgm 6;
#X obj 94 103 ctlandpgm 5;
#X obj 14 163 ctlandpgm 4;
#X obj 14 143 ctlandpgm 3;
#X obj 14 123 ctlandpgm 2;
#X obj 612 213 s recallbang;
#X obj 484 24 r saverbang;
#X obj 659 15 r loaderbang;
#X msg 634 186 recall 1;
#X msg 549 99 store 1;
#X obj 492 53 t b b;
#X obj 615 158 t b b;
#X msg 772 101 reset;
#X obj 659 38 t b b;
#X obj 615 116 bang;
#X obj 615 137 del 250;
#X obj 727 192 bng 15 250 50 0 empty empty empty 17 7 0 10 -262144
-1 -1;
#X connect 17 0 0 0;
#X connect 18 0 0 0;
#X connect 18 0 48 0;
#X connect 19 0 18 0;
#X connect 20 0 17 0;
#X connect 21 0 20 0;
#X connect 22 0 19 0;
#X connect 40 0 44 0;
#X connect 41 0 47 0;
#X connect 42 0 0 0;
#X connect 43 0 0 0;
#X connect 44 0 21 0;
#X connect 44 1 43 0;
#X connect 45 0 39 0;
#X connect 45 1 42 0;
#X connect 46 0 0 0;
#X connect 47 0 22 0;
#X connect 47 1 46 0;
#X connect 48 0 49 0;
#X connect 49 0 45 0;
#X connect 50 0 39 0;
#X restore 165 448 pd savestates;
#N canvas 390 200 205 286 random 0;
#X obj 144 242 noteout;
#X obj 191 174 random 16;
#X obj 206 200 + 1;
#X obj 103 131 random 24;
#X obj 101 151 + 40;
#X obj 151 152 t f b;
#X obj 223 43 tgl 15 0 empty empty empty 17 7 0 10 -262144 -1 -1 0
1;
#X floatatom 89 236 5 0 0 0 - - -, f 5;
#X obj 106 98 metro 250;
#X obj 90 194 makenote 120 120;
#N canvas 390 200 158 148 channel1only 0;
#X obj 28 104 noteout 1;
#X obj 18 77 makenote 120 120;
#X floatatom 17 53 5 0 0 0 - - -, f 5;
#X obj 51 53 expr $f1+40;
#X obj 50 32 random 40;
#X obj 49 11 metro 277;
#X obj 27 10 tgl 15 0 empty empty empty 17 7 0 10 -262144 -1 -1 0 1
;
#X connect 1 0 0 0;
#X connect 1 1 0 1;
#X connect 2 0 1 0;
#X connect 3 0 2 0;
#X connect 4 0 3 0;
#X connect 5 0 4 0;
#X connect 6 0 5 0;
#X restore 177 104 pd channel1only;
#X connect 1 0 2 0;
#X connect 2 0 0 2;
#X connect 3 0 4 0;
#X connect 4 0 5 0;
#X connect 5 0 9 0;
#X connect 5 1 1 0;
#X connect 6 0 8 0;
#X connect 8 0 3 0;
#X connect 9 0 0 0;
#X connect 9 1 0 1;
#X connect 9 1 7 0;
#X coords 0 -1 1 1 162 18 1 78 42;
#X restore 215 412 pd random note out test;
#X obj 94 345 spigot 0;
#X obj 102 320 r verbose;
#N canvas 390 200 196 227 toggle 0;
#X obj 325 44 r chansel;
#X obj 312 173 makefilename tog%d;
#X msg 311 198 \; \$1 0 \;;
#X obj 384 95 t b f;
#X obj 354 144 sel 0;
#X obj 319 90 countto 16;
#X obj 271 104 sel 0;
#X obj 296 126 bang;
#X obj 360 71 sel 0;
#X obj 342 119 + 1;
#X obj 295 148 del 10;
#X text 349 202 toggle define;
#X connect 0 0 8 0;
#X connect 1 0 2 0;
#X connect 3 0 5 0;
#X connect 3 1 4 1;
#X connect 4 1 1 0;
#X connect 5 0 6 0;
#X connect 5 0 9 0;
#X connect 6 1 7 0;
#X connect 7 0 10 0;
#X connect 8 1 3 0;
#X connect 9 0 4 0;
#X connect 10 0 5 0;
#X restore 260 448 pd toggle behavior;
#X obj 81 397 tgl 48 0 verbose empty VERBOSE 3 7 0 10 -262144 -1 -1
0 1;
#X obj 267 314 spigot 0;
#X obj 275 289 r verbose;
#X obj 236 336 print chansel;
#X obj 595 155 PANICBUTTON;
#X obj 402 377 expr $f1*107+ 166;
#X obj 597 102 bng 25 250 50 0 loaderbang empty LOAD 1 12 0 10 -1 -258113
-4034;
#X obj 597 129 bng 25 250 50 0 saverbang empty SAVE 1 12 0 10 -1 -258113
-4034;
#X connect 1 0 4 0;
#X connect 2 0 3 0;
#X connect 3 1 5 0;
#X connect 3 1 89 0;
#X connect 5 0 4 1;
#X connect 41 0 40 0;
#X connect 42 0 44 0;
#X connect 43 0 44 1;
#X connect 43 0 45 0;
#X connect 44 0 41 0;
#X connect 45 0 44 0;
#X connect 46 0 50 0;
#X connect 47 0 52 0;
#X connect 48 0 49 0;
#X connect 49 0 93 0;
#X connect 50 1 51 0;
#X connect 51 0 48 0;
#X connect 51 0 47 0;
#X connect 52 0 43 0;
#X connect 53 0 85 0;
#X connect 53 0 54 0;
#X connect 55 0 62 0;
#X connect 56 0 59 0;
#X connect 56 1 60 1;
#X connect 57 0 56 0;
#X connect 58 0 56 0;
#X connect 59 0 55 0;
#X connect 60 0 56 0;
#X connect 61 0 62 0;
#X connect 62 0 67 0;
#X connect 63 1 60 0;
#X connect 63 2 58 0;
#X connect 63 3 57 0;
#X connect 64 0 63 0;
#X connect 65 0 66 0;
#X connect 66 1 61 0;
#X connect 67 0 70 0;
#X connect 67 1 68 1;
#X connect 68 0 69 0;
#X connect 70 0 68 0;
#X connect 72 0 71 1;
#X connect 73 0 82 0;
#X connect 73 1 72 0;
#X connect 74 0 73 0;
#X connect 74 0 78 1;
#X connect 74 0 75 0;
#X connect 75 0 80 0;
#X connect 75 1 76 0;
#X connect 76 0 78 0;
#X connect 77 0 78 0;
#X connect 78 0 79 0;
#X connect 79 0 74 0;
#X connect 82 0 71 0;
#X connect 85 0 54 0;
#X connect 86 0 85 1;
#X connect 89 0 91 0;
#X connect 90 0 89 1;
#X connect 93 0 42 0;
#X coords 0 -1 1 1 460 175 2 166 100;
