#N canvas 423 69 601 630 10;
#N canvas 619 79 817 710 bignanosynthcontrol 0;
#X obj 182 202 scrolllist 42 60 166 {Helvetica\ 10\ bold} black green
red;
#X msg 78 174 add \$1;
#X msg 292 133 bgcolor black;
#X msg 308 157 fgcolor green;
#X msg 319 180 secolor red;
#X obj 121 128 textfile;
#X msg 144 50 read nanobank.txt;
#X msg 126 70 rewind;
#X obj 79 151 list2symbol;
#X msg 184 29 clear;
#N canvas 0 0 450 300 bangtildun 0;
#X obj 112 52 inlet;
#X obj 261 24 inlet;
#X obj 86 254 outlet;
#X obj 251 249 outlet;
#X msg 204 86 stop;
#X obj 227 177 int 0;
#X obj 268 178 + 1;
#X obj 251 211 int;
#X obj 193 179 bang;
#X msg 252 149 0;
#X obj 37 131 delay 5;
#X obj 228 60 bang;
#X obj 134 128 delay 50;
#X obj 84 228 spigot;
#X msg 148 192 0;
#X obj 84 176 t b b;
#X msg 112 200 1;
#X connect 0 0 12 0;
#X connect 0 0 15 0;
#X connect 1 0 11 0;
#X connect 4 0 8 0;
#X connect 4 0 9 0;
#X connect 4 0 10 0;
#X connect 4 0 12 0;
#X connect 4 0 14 0;
#X connect 5 0 6 0;
#X connect 6 0 5 1;
#X connect 6 0 7 1;
#X connect 7 0 3 0;
#X connect 8 0 7 0;
#X connect 9 0 5 1;
#X connect 10 0 12 0;
#X connect 11 0 4 0;
#X connect 12 0 5 0;
#X connect 12 0 10 0;
#X connect 12 0 15 0;
#X connect 13 0 2 0;
#X connect 14 0 13 1;
#X connect 15 0 13 0;
#X connect 15 1 16 0;
#X connect 16 0 13 1;
#X restore 115 84 pd bangtildun;
#N canvas 390 200 450 300 scrollything 0;
#X obj 138 37 inlet;
#X obj 125 220 outlet;
#X obj 222 95 t b f;
#X msg 148 187 seek \$1;
#X obj 300 132 - 1;
#X msg 156 63 0;
#X obj 234 161 sel 1;
#X obj 125 122 metro 22;
#X floatatom 78 236 5 0 0 0 - - -, f 5;
#X floatatom 250 57 5 0 0 0 - - -, f 5;
#X obj 141 146 countto 2;
#X obj 10 198 expr ($f1+3)*($f1+4);
#X obj 60 97 pipe 500;
#X connect 0 0 2 0;
#X connect 0 0 9 0;
#X connect 2 0 7 0;
#X connect 2 1 4 0;
#X connect 2 1 10 1;
#X connect 3 0 1 0;
#X connect 4 0 6 1;
#X connect 5 0 7 0;
#X connect 5 0 10 0;
#X connect 5 0 12 0;
#X connect 6 0 5 0;
#X connect 7 0 10 0;
#X connect 10 0 3 0;
#X connect 10 0 6 0;
#X connect 10 0 11 0;
#X connect 11 0 8 0;
#X connect 11 0 7 1;
#X connect 12 0 3 0;
#X restore 189 118 pd scrollything;
#X obj 82 0 t b b b b;
#X obj -79 217 int;
#X obj -118 246 pack;
#X obj -115 81 tgl 15 0 empty empty empty 17 7 0 10 -262144 -1 -1 0
1;
#X msg -41 135 0;
#X obj -120 181 t f f;
#X obj -30 260 sel -0;
#X msg -39 112 1;
#X obj -71 -50 inlet;
#X obj 16 -48 t b f;
#X obj 30 4 del 15;
#X obj -117 205 % 5;
#X obj -79 197 / 5;
#X obj -120 133 countto 36;
#X obj -45 189 sel 35;
#X obj -119 160 % 36;
#X msg -14 285 8;
#X obj 50 -22 * 108;
#X obj 316 76 int;
#X msg 319 97 seek \$1;
#X obj 316 55 / 8;
#X obj -120 106 metro 80;
#X connect 1 0 0 0;
#X connect 2 0 0 0;
#X connect 3 0 0 0;
#X connect 4 0 0 0;
#X connect 5 0 8 0;
#X connect 5 1 10 1;
#X connect 6 0 5 0;
#X connect 7 0 5 0;
#X connect 8 0 1 0;
#X connect 9 0 0 0;
#X connect 10 0 5 0;
#X connect 10 1 11 0;
#X connect 11 0 0 0;
#X connect 12 0 10 0;
#X connect 12 1 7 0;
#X connect 12 2 6 0;
#X connect 12 3 9 0;
#X connect 15 0 33 0;
#X connect 16 0 15 0;
#X connect 17 0 23 0;
#X connect 17 1 24 0;
#X connect 18 0 28 0;
#X connect 18 1 14 1;
#X connect 19 0 15 0;
#X connect 20 0 21 0;
#X connect 21 0 22 0;
#X connect 21 1 29 0;
#X connect 22 0 12 0;
#X connect 22 0 19 0;
#X connect 23 0 14 0;
#X connect 24 0 13 0;
#X connect 25 0 26 0;
#X connect 25 0 27 0;
#X connect 26 0 16 0;
#X connect 27 0 17 0;
#X connect 28 0 14 1;
#X connect 29 0 22 1;
#X connect 30 0 31 0;
#X connect 31 0 0 0;
#X connect 32 0 30 0;
#X connect 33 0 25 0;
#X coords 0 -1 1 1 64 170 2 180 200;
#X restore 101 101 pd bignanosynthcontrol;
#X obj 91 47 \$1;
#X obj 75 14 loadbang;
#X connect 1 0 0 0;
#X connect 2 0 1 0;
#X coords 0 -1 1 1 66 172 2 100 100;
