#N canvas 390 200 450 300 10;
#X obj 216 254 r patchctl;
#X obj 272 346 preset_node;
#X obj 179 345 preset_node;
#X obj 221 420 int;
#X obj 253 418 int;
#X obj 115 378 bng 15 250 50 0 empty recallbang empty 17 7 0 10 -262144
-1 -1;
#X obj 221 420 int;
#X obj 253 418 int;
#X obj 255 322 unpack f f;
#X obj 238 291 route 1;
#X floatatom 235 380 5 0 0 0 - - -, f 5;
#X floatatom 301 392 5 0 0 0 - - -, f 5;
#X floatatom 244 491 5 0 0 0 - - -, f 5;
#X obj 304 466 hradio 15 1 0 5 empty empty empty 0 -8 0 10 -262144
-1 -1 2;
#X obj 254 516 + 1;
#X obj 249 462 % 128;
#X obj 306 498 pipe 10;
#X obj 308 543 ctlout 1;
#X obj 249 548 pgmout 1;
#X obj 396 255 \$1;
#X floatatom 397 277 5 0 0 0 - - -, f 5;
#X obj 383 229 loadbang;
#X obj 115 398 del 10;
#X connect 0 0 9 0;
#X connect 1 0 11 0;
#X connect 2 0 10 0;
#X connect 5 0 22 0;
#X connect 6 0 15 0;
#X connect 7 0 13 0;
#X connect 8 0 10 0;
#X connect 8 1 11 0;
#X connect 9 0 8 0;
#X connect 10 0 6 1;
#X connect 11 0 7 1;
#X connect 12 0 14 0;
#X connect 13 0 16 0;
#X connect 14 0 18 0;
#X connect 15 0 12 0;
#X connect 16 0 17 0;
#X connect 19 0 20 0;
#X connect 20 0 17 2;
#X connect 20 0 18 1;
#X connect 20 0 9 1;
#X connect 21 0 19 0;
#X connect 22 0 6 0;
#X connect 22 0 7 0;
