#N canvas 390 200 450 300 10;
#X obj 56 34 tgl 25 0 empty empty PANIC 0 20 0 8 -1 -4034 -258113 0
1;
#X obj 100 233 noteout;
#X obj 119 141 int 0;
#X obj 168 143 + 1;
#X obj 168 165 % 16;
#X msg 117 171 0;
#X obj 26 148 int 0;
#X obj 78 150 + 1;
#X obj 78 172 % 128;
#X obj 36 213 sel 127;
#X obj 211 46 sel 0;
#X obj 238 69 bang;
#X msg 133 31 set 0;
#X obj 64 236 bang;
#X obj 120 107 loadbang;
#X obj 69 91 t b b;
#X obj 281 105 del 1;
#X obj 188 18 del 250;
#X connect 0 0 15 0;
#X connect 2 0 3 0;
#X connect 2 0 10 0;
#X connect 3 0 4 0;
#X connect 3 0 1 2;
#X connect 4 0 2 1;
#X connect 5 0 1 1;
#X connect 6 0 7 0;
#X connect 7 0 8 0;
#X connect 8 0 6 1;
#X connect 8 0 9 0;
#X connect 8 0 1 0;
#X connect 9 0 2 0;
#X connect 9 1 13 0;
#X connect 10 0 17 0;
#X connect 10 1 11 0;
#X connect 11 0 16 0;
#X connect 12 0 0 0;
#X connect 13 0 6 0;
#X connect 14 0 2 0;
#X connect 15 0 6 0;
#X connect 15 1 5 0;
#X connect 16 0 6 0;
#X connect 17 0 12 0;
#X coords 0 -1 1 1 28 28 2 55 32;
