#N canvas 390 200 450 300 10;
#X obj 57 11 inlet;
#X obj 57 36 tgl 38 0 empty empty PANIC 5 16 0 10 -262144 -258113 -1
0 1;
#X obj 100 233 noteout;
#X obj 119 141 int 0;
#X obj 168 143 + 1;
#X obj 168 165 % 16;
#X msg 117 171 0;
#X obj 26 148 int 0;
#X obj 78 150 + 1;
#X obj 78 172 % 128;
#X obj 36 213 sel 127;
#X obj 211 46 sel 0;
#X obj 238 69 bang;
#X msg 133 31 set 0;
#X obj 64 236 bang;
#X obj 122 69 loadbang;
#X obj 69 91 t b b;
#X obj 281 105 del 1;
#X connect 0 0 1 0;
#X connect 1 0 16 0;
#X connect 3 0 4 0;
#X connect 3 0 11 0;
#X connect 4 0 5 0;
#X connect 4 0 2 2;
#X connect 5 0 3 1;
#X connect 6 0 2 1;
#X connect 7 0 8 0;
#X connect 8 0 9 0;
#X connect 9 0 7 1;
#X connect 9 0 10 0;
#X connect 9 0 2 0;
#X connect 10 0 3 0;
#X connect 10 1 14 0;
#X connect 11 0 13 0;
#X connect 11 1 12 0;
#X connect 12 0 17 0;
#X connect 13 0 1 0;
#X connect 14 0 7 0;
#X connect 15 0 3 0;
#X connect 16 0 7 0;
#X connect 16 1 6 0;
#X connect 17 0 7 0;
#X coords 0 -1 1 1 42 45 2 55 32;
