#N canvas 22 111 450 300 10;
#X obj 9 10 pgmin 1;
#X obj 60 10 ctlin 1;
#X floatatom 9 32 5 0 0 0 - - -, f 5;
#X floatatom 46 32 5 0 0 0 - - -, f 5;
#X floatatom 80 32 5 0 0 0 - - -, f 5;
#X floatatom 9 82 5 0 0 0 - - -, f 5;
#X floatatom 46 82 5 0 0 0 - - -, f 5;
#X floatatom 80 82 5 0 0 0 - - -, f 5;
#X obj 9 60 pgmin 2;
#X obj 59 60 ctlin 2;
#X floatatom 9 132 5 0 0 0 - - -, f 5;
#X floatatom 46 132 5 0 0 0 - - -, f 5;
#X floatatom 80 132 5 0 0 0 - - -, f 5;
#X floatatom 9 182 5 0 0 0 - - -, f 5;
#X floatatom 46 182 5 0 0 0 - - -, f 5;
#X floatatom 80 182 5 0 0 0 - - -, f 5;
#X obj 9 110 pgmin 3;
#X obj 59 110 ctlin 3;
#X obj 9 160 pgmin 4;
#X obj 59 160 ctlin 4;
#X obj 121 15 midiin 1;
#X obj 132 37 pack;
#X obj 114 58 print midin;
#X obj 308 134 noteout 1;
#X obj 292 106 makenote 120 500;
#X obj 299 61 metro 750;
#X msg 305 83 60;
#X obj 277 61 tgl 15 0 empty empty empty 17 7 0 10 -262144 -1 -1 1
1;
#X obj 237 202 s recallbang;
#X obj 213 165 bng 15 250 50 0 empty empty empty 17 7 0 10 -262144
-1 -1;
#X connect 0 0 2 0;
#X connect 1 0 3 0;
#X connect 1 1 4 0;
#X connect 8 0 5 0;
#X connect 9 0 6 0;
#X connect 9 1 7 0;
#X connect 16 0 10 0;
#X connect 17 0 11 0;
#X connect 17 1 12 0;
#X connect 18 0 13 0;
#X connect 19 0 14 0;
#X connect 19 1 15 0;
#X connect 20 0 21 0;
#X connect 20 1 21 1;
#X connect 21 0 22 0;
#X connect 24 0 23 0;
#X connect 24 1 23 1;
#X connect 25 0 26 0;
#X connect 26 0 24 0;
#X connect 27 0 25 0;
#X connect 29 0 28 0;
